<?xml version="1.0" encoding="UTF-8"?>
<svg version="1.1" xmlns="http://www.w3.org/2000/svg" width="1092" height="978">
<path d="M0 0 C1.07975098 0.13921875 2.15950195 0.2784375 3.27197266 0.421875 C55.5538149 7.21356222 107.95323901 22.28250699 154.74365234 46.82470703 C157.45078921 48.2348084 160.17263657 49.61469884 162.89453125 50.99609375 C175.60986241 57.48216276 188.00613277 64.25597437 200 72 C200.64050293 72.41314453 201.28100586 72.82628906 201.94091797 73.25195312 C206.33741013 76.10532062 210.678479 79.03459563 215 82 C215.67385742 82.45987305 216.34771484 82.91974609 217.04199219 83.39355469 C227.17115545 90.32947223 236.81239956 97.70272983 246.24853516 105.55273438 C248.66107287 107.54625592 251.11591065 109.48601071 253.5625 111.4375 C259.99408998 116.70582782 265.98934935 122.43243859 272.02539062 128.14306641 C274.02036327 130.01914973 276.03074078 131.87716118 278.046875 133.73046875 C289.67204856 144.43382238 289.67204856 144.43382238 294.5390625 150.2890625 C296.06368401 152.07458181 297.68490364 153.6835836 299.375 155.3125 C303.16168873 159.03141801 306.42663779 163.11825239 309.75 167.25 C311.74997426 169.69441298 313.81019476 172.04182651 315.9375 174.375 C337.35415293 198.28392615 354.46292289 226.7010922 369.78564453 254.77978516 C370.56595 256.20642325 371.35043698 257.63078656 372.14013672 259.05224609 C383.46612374 279.43902274 392.20014689 301.05298363 400 323 C400.47131348 324.32112793 400.47131348 324.32112793 400.95214844 325.66894531 C412.19028281 357.46435004 419.63455671 390.58513527 424 424 C424.22647217 425.62470215 424.22647217 425.62470215 424.45751953 427.28222656 C429.77588587 466.6507593 429.46669612 508.66688575 424 548 C423.86078125 549.07975098 423.7215625 550.15950195 423.578125 551.27197266 C416.78643778 603.5538149 401.71749301 655.95323901 377.17529297 702.74365234 C375.7651916 705.45078921 374.38530116 708.17263657 373.00390625 710.89453125 C366.51783724 723.60986241 359.74402563 736.00613277 352 748 C351.58685547 748.64050293 351.17371094 749.28100586 350.74804688 749.94091797 C347.89467938 754.33741013 344.96540437 758.678479 342 763 C341.54012695 763.67385742 341.08025391 764.34771484 340.60644531 765.04199219 C333.67052777 775.17115545 326.29727017 784.81239956 318.44726562 794.24853516 C316.45374408 796.66107287 314.51398929 799.11591065 312.5625 801.5625 C307.29417218 807.99408998 301.56756141 813.98934935 295.85693359 820.02539062 C293.98085027 822.02036327 292.12283882 824.03074078 290.26953125 826.046875 C279.56617762 837.67204856 279.56617762 837.67204856 273.7109375 842.5390625 C271.92541819 844.06368401 270.3164164 845.68490364 268.6875 847.375 C264.96858199 851.16168873 260.88174761 854.42663779 256.75 857.75 C254.30558702 859.74997426 251.95817349 861.81019476 249.625 863.9375 C225.71607385 885.35415293 197.2989078 902.46292289 169.22021484 917.78564453 C167.79357675 918.56595 166.36921344 919.35043698 164.94775391 920.14013672 C144.56097726 931.46612374 122.94701637 940.20014689 101 948 C99.67887207 948.47131348 99.67887207 948.47131348 98.33105469 948.95214844 C66.53564996 960.19028281 33.41486473 967.63455671 0 972 C-1.62470215 972.22647217 -1.62470215 972.22647217 -3.28222656 972.45751953 C-42.6507593 977.77588587 -84.66688575 977.46669612 -124 972 C-125.07975098 971.86078125 -126.15950195 971.7215625 -127.27197266 971.578125 C-179.5538149 964.78643778 -231.95323901 949.71749301 -278.74365234 925.17529297 C-281.45078921 923.7651916 -284.17263657 922.38530116 -286.89453125 921.00390625 C-299.60986241 914.51783724 -312.00613277 907.74402563 -324 900 C-324.64050293 899.58685547 -325.28100586 899.17371094 -325.94091797 898.74804688 C-330.33741013 895.89467938 -334.678479 892.96540437 -339 890 C-339.67385742 889.54012695 -340.34771484 889.08025391 -341.04199219 888.60644531 C-351.17115545 881.67052777 -360.81239956 874.29727017 -370.24853516 866.44726562 C-372.66107287 864.45374408 -375.11591065 862.51398929 -377.5625 860.5625 C-383.99408998 855.29417218 -389.98934935 849.56756141 -396.02539062 843.85693359 C-398.02036327 841.98085027 -400.03074078 840.12283882 -402.046875 838.26953125 C-413.67204856 827.56617762 -413.67204856 827.56617762 -418.5390625 821.7109375 C-420.06368401 819.92541819 -421.68490364 818.3164164 -423.375 816.6875 C-427.16168873 812.96858199 -430.42663779 808.88174761 -433.75 804.75 C-435.74997426 802.30558702 -437.81019476 799.95817349 -439.9375 797.625 C-461.35415293 773.71607385 -478.46292289 745.2989078 -493.78564453 717.22021484 C-494.56595 715.79357675 -495.35043698 714.36921344 -496.14013672 712.94775391 C-507.46612374 692.56097726 -516.20014689 670.94701637 -524 649 C-524.47131348 647.67887207 -524.47131348 647.67887207 -524.95214844 646.33105469 C-536.19028281 614.53564996 -543.63455671 581.41486473 -548 548 C-548.22647217 546.37529785 -548.22647217 546.37529785 -548.45751953 544.71777344 C-553.77588587 505.3492407 -553.46669612 463.33311425 -548 424 C-547.86078125 422.92024902 -547.7215625 421.84049805 -547.578125 420.72802734 C-540.78643778 368.4461851 -525.71749301 316.04676099 -501.17529297 269.25634766 C-499.7651916 266.54921079 -498.38530116 263.82736343 -497.00390625 261.10546875 C-490.51783724 248.39013759 -483.74402563 235.99386723 -476 224 C-475.58685547 223.35949707 -475.17371094 222.71899414 -474.74804688 222.05908203 C-471.89467938 217.66258987 -468.96540437 213.321521 -466 209 C-465.31019043 207.98921387 -465.31019043 207.98921387 -464.60644531 206.95800781 C-457.67052777 196.82884455 -450.29727017 187.18760044 -442.44726562 177.75146484 C-440.45374408 175.33892713 -438.51398929 172.88408935 -436.5625 170.4375 C-431.29417218 164.00591002 -425.56756141 158.01065065 -419.85693359 151.97460938 C-417.98085027 149.97963673 -416.12283882 147.96925922 -414.26953125 145.953125 C-403.56617762 134.32795144 -403.56617762 134.32795144 -397.7109375 129.4609375 C-395.92541819 127.93631599 -394.3164164 126.31509636 -392.6875 124.625 C-388.96858199 120.83831127 -384.88174761 117.57336221 -380.75 114.25 C-378.30558702 112.25002574 -375.95817349 110.18980524 -373.625 108.0625 C-349.71607385 86.64584707 -321.2989078 69.53707711 -293.22021484 54.21435547 C-291.79357675 53.43405 -290.36921344 52.64956302 -288.94775391 51.85986328 C-268.56097726 40.53387626 -246.94701637 31.79985311 -225 24 C-223.67887207 23.52868652 -223.67887207 23.52868652 -222.33105469 23.04785156 C-190.53564996 11.80971719 -157.41486473 4.36544329 -124 0 C-122.91686523 -0.15098145 -121.83373047 -0.30196289 -120.71777344 -0.45751953 C-81.3492407 -5.77588587 -39.33311425 -5.46669612 0 0 Z " fill="#F1F1F1" transform="translate(614,3)"/>
<path d="M0 0 C19.16546082 16.65799431 27.38503385 41.30440923 30.125 65.875 C30.40932843 70.89971702 30.45916791 75.90551949 30.4375 80.9375 C30.43567719 81.61176025 30.43385437 82.28602051 30.43197632 82.98071289 C30.30618353 110.74854813 24.46636539 137.91008934 5.125 158.875 C4.28195312 159.83792969 4.28195312 159.83792969 3.421875 160.8203125 C-8.74982989 173.99647847 -27.61083773 181.60264719 -45.390625 182.30859375 C-47.63529172 182.33231372 -49.88030235 182.33308618 -52.125 182.3125 C-53.30940674 182.30347656 -54.49381348 182.29445313 -55.71411133 182.28515625 C-75.44815678 181.89660049 -93.25722454 175.64946434 -107.328125 161.52734375 C-108.16859375 160.65207031 -109.0090625 159.77679687 -109.875 158.875 C-110.55046875 158.19566406 -111.2259375 157.51632812 -111.921875 156.81640625 C-132.20682703 135.22998606 -135.87474057 102.6006146 -135.1953125 74.39453125 C-134.85918028 66.02387157 -133.83142581 58.01544108 -131.875 49.875 C-131.71402832 49.17407227 -131.55305664 48.47314453 -131.38720703 47.75097656 C-126.64615669 27.70284631 -115.93963675 7.28012472 -98.22705078 -4.19238281 C-68.09422618 -22.69889746 -28.10106761 -23.05172223 0 0 Z " fill="#45474A" transform="translate(458.875,366.125)"/>
<path d="M0 0 C1.07975098 0.13921875 2.15950195 0.2784375 3.27197266 0.421875 C55.5538149 7.21356222 107.95323901 22.28250699 154.74365234 46.82470703 C157.45078921 48.2348084 160.17263657 49.61469884 162.89453125 50.99609375 C175.60986241 57.48216276 188.00613277 64.25597437 200 72 C200.64050293 72.41314453 201.28100586 72.82628906 201.94091797 73.25195312 C206.33741013 76.10532062 210.678479 79.03459563 215 82 C215.67385742 82.45987305 216.34771484 82.91974609 217.04199219 83.39355469 C227.17115545 90.32947223 236.81239956 97.70272983 246.24853516 105.55273438 C248.66107287 107.54625592 251.11591065 109.48601071 253.5625 111.4375 C259.99408998 116.70582782 265.98934935 122.43243859 272.02539062 128.14306641 C274.02036327 130.01914973 276.03074078 131.87716118 278.046875 133.73046875 C289.67204856 144.43382238 289.67204856 144.43382238 294.5390625 150.2890625 C296.06368401 152.07458181 297.68490364 153.6835836 299.375 155.3125 C303.16168873 159.03141801 306.42663779 163.11825239 309.75 167.25 C311.74997426 169.69441298 313.81019476 172.04182651 315.9375 174.375 C337.35415293 198.28392615 354.46292289 226.7010922 369.78564453 254.77978516 C370.56595 256.20642325 371.35043698 257.63078656 372.14013672 259.05224609 C383.46612374 279.43902274 392.20014689 301.05298363 400 323 C400.47131348 324.32112793 400.47131348 324.32112793 400.95214844 325.66894531 C412.19028281 357.46435004 419.63455671 390.58513527 424 424 C424.22647217 425.62470215 424.22647217 425.62470215 424.45751953 427.28222656 C429.77588587 466.6507593 429.46669612 508.66688575 424 548 C423.86078125 549.07975098 423.7215625 550.15950195 423.578125 551.27197266 C416.78643778 603.5538149 401.71749301 655.95323901 377.17529297 702.74365234 C375.7651916 705.45078921 374.38530116 708.17263657 373.00390625 710.89453125 C366.51783724 723.60986241 359.74402563 736.00613277 352 748 C351.58685547 748.64050293 351.17371094 749.28100586 350.74804688 749.94091797 C347.89467938 754.33741013 344.96540437 758.678479 342 763 C341.54012695 763.67385742 341.08025391 764.34771484 340.60644531 765.04199219 C333.67052777 775.17115545 326.29727017 784.81239956 318.44726562 794.24853516 C316.45374408 796.66107287 314.51398929 799.11591065 312.5625 801.5625 C307.29417218 807.99408998 301.56756141 813.98934935 295.85693359 820.02539062 C293.98085027 822.02036327 292.12283882 824.03074078 290.26953125 826.046875 C279.56617762 837.67204856 279.56617762 837.67204856 273.7109375 842.5390625 C271.92541819 844.06368401 270.3164164 845.68490364 268.6875 847.375 C264.96858199 851.16168873 260.88174761 854.42663779 256.75 857.75 C254.30558702 859.74997426 251.95817349 861.81019476 249.625 863.9375 C225.71607385 885.35415293 197.2989078 902.46292289 169.22021484 917.78564453 C167.79357675 918.56595 166.36921344 919.35043698 164.94775391 920.14013672 C144.56097726 931.46612374 122.94701637 940.20014689 101 948 C99.67887207 948.47131348 99.67887207 948.47131348 98.33105469 948.95214844 C66.53564996 960.19028281 33.41486473 967.63455671 0 972 C-1.62470215 972.22647217 -1.62470215 972.22647217 -3.28222656 972.45751953 C-42.6507593 977.77588587 -84.66688575 977.46669612 -124 972 C-125.07975098 971.86078125 -126.15950195 971.7215625 -127.27197266 971.578125 C-179.5538149 964.78643778 -231.95323901 949.71749301 -278.74365234 925.17529297 C-281.45078921 923.7651916 -284.17263657 922.38530116 -286.89453125 921.00390625 C-299.60986241 914.51783724 -312.00613277 907.74402563 -324 900 C-324.64050293 899.58685547 -325.28100586 899.17371094 -325.94091797 898.74804688 C-330.33741013 895.89467938 -334.678479 892.96540437 -339 890 C-339.67385742 889.54012695 -340.34771484 889.08025391 -341.04199219 888.60644531 C-351.17115545 881.67052777 -360.81239956 874.29727017 -370.24853516 866.44726562 C-372.66107287 864.45374408 -375.11591065 862.51398929 -377.5625 860.5625 C-383.99408998 855.29417218 -389.98934935 849.56756141 -396.02539062 843.85693359 C-398.02036327 841.98085027 -400.03074078 840.12283882 -402.046875 838.26953125 C-413.67204856 827.56617762 -413.67204856 827.56617762 -418.5390625 821.7109375 C-420.06368401 819.92541819 -421.68490364 818.3164164 -423.375 816.6875 C-427.16168873 812.96858199 -430.42663779 808.88174761 -433.75 804.75 C-435.74997426 802.30558702 -437.81019476 799.95817349 -439.9375 797.625 C-461.35415293 773.71607385 -478.46292289 745.2989078 -493.78564453 717.22021484 C-494.56595 715.79357675 -495.35043698 714.36921344 -496.14013672 712.94775391 C-507.46612374 692.56097726 -516.20014689 670.94701637 -524 649 C-524.47131348 647.67887207 -524.47131348 647.67887207 -524.95214844 646.33105469 C-536.19028281 614.53564996 -543.63455671 581.41486473 -548 548 C-548.22647217 546.37529785 -548.22647217 546.37529785 -548.45751953 544.71777344 C-553.77588587 505.3492407 -553.46669612 463.33311425 -548 424 C-547.86078125 422.92024902 -547.7215625 421.84049805 -547.578125 420.72802734 C-540.78643778 368.4461851 -525.71749301 316.04676099 -501.17529297 269.25634766 C-499.7651916 266.54921079 -498.38530116 263.82736343 -497.00390625 261.10546875 C-490.51783724 248.39013759 -483.74402563 235.99386723 -476 224 C-475.58685547 223.35949707 -475.17371094 222.71899414 -474.74804688 222.05908203 C-471.89467938 217.66258987 -468.96540437 213.321521 -466 209 C-465.31019043 207.98921387 -465.31019043 207.98921387 -464.60644531 206.95800781 C-457.67052777 196.82884455 -450.29727017 187.18760044 -442.44726562 177.75146484 C-440.45374408 175.33892713 -438.51398929 172.88408935 -436.5625 170.4375 C-431.29417218 164.00591002 -425.56756141 158.01065065 -419.85693359 151.97460938 C-417.98085027 149.97963673 -416.12283882 147.96925922 -414.26953125 145.953125 C-403.56617762 134.32795144 -403.56617762 134.32795144 -397.7109375 129.4609375 C-395.92541819 127.93631599 -394.3164164 126.31509636 -392.6875 124.625 C-388.96858199 120.83831127 -384.88174761 117.57336221 -380.75 114.25 C-378.30558702 112.25002574 -375.95817349 110.18980524 -373.625 108.0625 C-349.71607385 86.64584707 -321.2989078 69.53707711 -293.22021484 54.21435547 C-291.79357675 53.43405 -290.36921344 52.64956302 -288.94775391 51.85986328 C-268.56097726 40.53387626 -246.94701637 31.79985311 -225 24 C-223.67887207 23.52868652 -223.67887207 23.52868652 -222.33105469 23.04785156 C-190.53564996 11.80971719 -157.41486473 4.36544329 -124 0 C-122.91686523 -0.15098145 -121.83373047 -0.30196289 -120.71777344 -0.45751953 C-81.3492407 -5.77588587 -39.33311425 -5.46669612 0 0 Z M-128.0625 8.171875 C-131.5962898 8.78382397 -135.13175677 9.29801391 -138.6875 9.765625 C-213.38260536 19.83767778 -290.05373386 52.30783771 -349.27392578 98.65478516 C-350.97148057 99.9777734 -352.683526 101.27901475 -354.40234375 102.57421875 C-364.84027784 110.460692 -374.78971861 118.88608848 -384.45996094 127.69506836 C-386.06152548 129.1483912 -387.66942578 130.59479095 -389.28613281 132.03125 C-395.5746224 137.62333697 -401.6105124 143.42738564 -407.5625 149.375 C-408.88411133 150.67824219 -408.88411133 150.67824219 -410.23242188 152.0078125 C-415.49186579 157.25561189 -420.34408037 162.67207201 -424.96484375 168.49121094 C-427.03521905 171.04341542 -429.20590518 173.46329156 -431.4375 175.875 C-448.86358367 195.07679859 -463.71312096 217.53929659 -476.77099609 239.90234375 C-477.61976824 241.35102279 -478.474656 242.79612993 -479.33447266 244.23828125 C-502.53488389 283.16655388 -519.86369575 325.91231356 -530.50292969 369.97460938 C-530.97830031 371.91158122 -531.49217551 373.83898138 -532.0078125 375.765625 C-535.56210108 389.59096798 -537.35573067 403.76468065 -539.37744141 417.87817383 C-539.85975125 421.18521346 -540.42960232 424.47318346 -541.00268555 427.765625 C-541.99192628 433.67786961 -542.63766463 439.5685011 -543.10546875 445.54296875 C-543.18935349 446.6127446 -543.27323822 447.68252045 -543.35966492 448.78471375 C-544.26393248 461.28882515 -544.35117587 473.78097553 -544.3125 486.3125 C-544.31100952 487.51645416 -544.30951904 488.72040833 -544.3079834 489.96084595 C-544.27139168 506.4297128 -543.93584983 522.59731539 -541.46630859 538.90429688 C-540.95305955 542.3116256 -540.49956079 545.72422788 -540.05078125 549.140625 C-536.32528744 577.00278037 -530.9407717 604.32264512 -522 631 C-521.64808594 632.06750488 -521.29617188 633.13500977 -520.93359375 634.23486328 C-501.61484201 692.70683093 -472.59536183 746.74855176 -433 794 C-432.25218262 794.8964624 -432.25218262 794.8964624 -431.48925781 795.81103516 C-420.94224806 808.41947431 -409.71941813 820.35220408 -398.125 832 C-397.09113159 833.04087769 -397.09113159 833.04087769 -396.03637695 834.1027832 C-391.52027435 838.6047543 -386.84009135 842.85028788 -382 847 C-380.88240047 847.9734855 -379.76519316 848.94742154 -378.6484375 849.921875 C-356.70389419 868.93274447 -333.18135406 886.12452186 -308.09765625 900.77099609 C-306.64897721 901.61976824 -305.20387007 902.474656 -303.76171875 903.33447266 C-264.83541854 926.53370837 -222.09297868 943.85962628 -178.03417969 954.50292969 C-176.07193249 954.98242264 -174.11774173 955.49452407 -172.1640625 956.0078125 C-140.32884486 964.21053033 -106.76548343 967.43572646 -74 968 C-72.94941406 968.02191406 -71.89882813 968.04382813 -70.81640625 968.06640625 C21.0564683 969.80422859 112.24682446 945.31125016 246 857 C246.5976416 856.50145508 247.1952832 856.00291016 247.81103516 855.48925781 C260.41947431 844.94224806 272.35220408 833.71941813 284 822.125 C285.04087769 821.09113159 285.04087769 821.09113159 286.1027832 820.03637695 C290.6047543 815.52027435 294.85028788 810.84009135 299 806 C299.9734855 804.88240047 300.94742154 803.76519316 301.921875 802.6484375 C325.58163539 775.33760685 345.64138049 745.65436646 363 714 C363.42007324 713.24041992 363.84014648 712.48083984 364.27294922 711.69824219 C376.43759369 689.5880875 385.85006588 666.3693115 394.10400391 642.55126953 C394.84668076 640.43656297 395.61543611 638.33855798 396.41796875 636.24609375 C406.48896775 609.68342648 411.53264767 581.15915315 415.54492188 553.14233398 C415.85677469 550.9889769 416.18165743 548.83747812 416.51757812 546.68774414 C417.88813418 537.70971036 418.64001344 528.74953138 419.125 519.6875 C419.16669312 518.92786957 419.20838623 518.16823914 419.25134277 517.3855896 C420.98827608 484.93031238 421.41146706 452.04928006 415.828125 419.9375 C415.21617603 416.4037102 414.70198609 412.86824323 414.234375 409.3125 C404.76518955 339.03321414 375.50244396 269.90458385 335 212 C334.48373047 211.25991699 333.96746094 210.51983398 333.43554688 209.75732422 C325.74443583 198.7883794 317.6031145 188.26659691 309 178 C308.50145508 177.4023584 308.00291016 176.8047168 307.48925781 176.18896484 C296.94224806 163.58052569 285.71941813 151.64779592 274.125 140 C273.43575439 139.30608154 272.74650879 138.61216309 272.03637695 137.8972168 C267.52027435 133.3952457 262.84009135 129.14971212 258 125 C256.88240047 124.0265145 255.76519316 123.05257846 254.6484375 122.078125 C209.29918181 82.79142086 157.22638254 52.25098766 100.75341797 31.99072266 C98.15365226 31.05528648 95.56273917 30.09857367 92.97265625 29.13671875 C64.58995085 18.7321003 34.99980928 12.73095175 5.14233398 8.45507812 C2.9889769 8.14322531 0.83747812 7.81834257 -1.31225586 7.48242188 C-10.29028964 6.11186582 -19.25046862 5.35998656 -28.3125 4.875 C-29.07213043 4.83330688 -29.83176086 4.79161377 -30.6144104 4.74865723 C-63.06968762 3.01172392 -95.95071994 2.58853294 -128.0625 8.171875 Z " fill="#0378CC" transform="translate(614,3)"/>
<path d="M0 0 C16.83 0 33.66 0 51 0 C55.6641461 9.3282922 60.31237939 18.62876051 64.73095703 28.07080078 C65.04985901 28.75176819 65.36876099 29.4327356 65.69732666 30.13433838 C66.02408386 30.83250671 66.35084106 31.53067505 66.6875 32.25 C67.38649407 33.74075169 68.08555129 35.23147377 68.78466797 36.72216797 C70.19271329 39.72587672 71.59914906 42.73033199 73.00439453 45.73535156 C74.25794428 48.41563441 75.51370588 51.09484839 76.77294922 53.77246094 C116 137.20923993 116 137.20923993 116 151 C116.99 151 117.98 151 119 151 C118.910103 149.19813988 118.910103 149.19813988 118.81838989 147.35987854 C117.24916651 115.34013047 116.73387372 83.40694423 116.8626709 51.35211182 C116.8837174 45.52316855 116.89238563 39.69420526 116.90234375 33.86523438 C116.92332897 22.57676586 116.95827072 11.28841088 117 0 C127.23 0 137.46 0 148 0 C148 63.36 148 126.72 148 192 C134.47 192 120.94 192 107 192 C97.80242815 173.60485629 97.80242815 173.60485629 94.625 166.8828125 C94.25820633 166.11039215 93.89141266 165.3379718 93.51350403 164.54214478 C92.34051519 162.07062156 91.17004913 159.59791611 90 157.125 C89.16500031 155.36228449 88.32995719 153.59958956 87.49487305 151.83691406 C85.80322312 148.26518619 84.11290381 144.69283221 82.42333984 141.12011719 C80.54861078 137.15692381 78.66824836 133.19644917 76.78501892 129.23728943 C67.48096581 109.66943316 58.53995378 89.95849108 49.81591797 70.12548828 C48.11406863 66.25662272 46.40360731 62.39163943 44.69140625 58.52734375 C43.71069817 56.31000167 42.73021284 54.09256105 41.75 51.875 C41.32033936 50.9048999 40.89067871 49.9347998 40.44799805 48.93530273 C38.11847705 43.64596386 35.95305421 38.34443597 34.00097656 32.90283203 C33.09458182 30.64687292 33.09458182 30.64687292 30 30 C30.02978156 30.7410882 30.05956312 31.4821764 30.09024715 32.24572182 C30.84371631 51.46929999 31.14120608 70.65918225 31.10139394 89.89838743 C31.0949787 93.54575103 31.0945427 97.19311625 31.09336853 100.84048462 C31.09030714 107.69248317 31.08216678 114.54446503 31.07201904 121.39645636 C31.06069277 129.22045914 31.05530663 137.04446288 31.05032361 144.86847186 C31.03997734 160.91232578 31.02169982 176.95615681 31 193 C20.77 193 10.54 193 0 193 C0 129.31 0 65.62 0 0 Z " fill="#45474A" transform="translate(524,352)"/>
<path d="M0 0 C8.8403959 8.59482935 17.72003293 20.05842974 19.5625 32.625 C12.20131768 34.75736098 4.83077968 36.85656963 -2.5625 38.875 C-3.78195312 39.21015625 -5.00140625 39.5453125 -6.2578125 39.890625 C-9.4375 40.625 -9.4375 40.625 -13.4375 40.625 C-13.72882813 39.779375 -14.02015625 38.93375 -14.3203125 38.0625 C-16.62472558 31.68550784 -18.88998309 26.30180201 -23.30078125 21.11328125 C-24.4375 19.625 -24.4375 19.625 -24.4375 17.625 C-25.30375 17.19380859 -25.30375 17.19380859 -26.1875 16.75390625 C-27.60842503 16.04097685 -29.02565251 15.32058512 -30.4375 14.58984375 C-31.4275 14.08130859 -31.4275 14.08130859 -32.4375 13.5625 C-33.4275 13.05009766 -33.4275 13.05009766 -34.4375 12.52734375 C-42.82096717 8.74495915 -54.70556807 9.56349584 -63.22265625 12.58203125 C-69.54931066 15.56124947 -74.05225523 19.53155941 -77.4375 25.625 C-79.96462635 33.20637906 -79.20231528 41.51553403 -75.703125 48.625 C-66.6010406 63.00854079 -45.98522489 66.20610837 -30.6640625 70.7421875 C-13.44660629 75.88616824 6.6601376 82.579396 16.4375 98.875 C17.19062159 100.43752629 17.89698097 102.02319946 18.5625 103.625 C18.95308594 104.53378906 19.34367188 105.44257813 19.74609375 106.37890625 C24.90760488 120.36320803 24.18087902 136.52735665 18.49609375 150.1875 C11.43315822 165.47887197 -0.11042773 174.01121417 -15.52905273 179.77416992 C-25.30552596 183.18715353 -34.6213499 183.92151382 -44.9375 183.8125 C-46.67580078 183.8115332 -46.67580078 183.8115332 -48.44921875 183.81054688 C-69.95272594 183.70120701 -87.5400366 178.92417072 -103.6875 164 C-110.78961255 156.58909995 -119.4375 144.2032917 -119.4375 133.625 C-115.2029367 132.1970217 -110.96708336 130.77295896 -106.72998047 129.35253906 C-105.28821123 128.86859309 -103.84680254 128.38357161 -102.40576172 127.89746094 C-100.33654721 127.19965288 -98.26607457 126.50570002 -96.1953125 125.8125 C-94.9489502 125.39355469 -93.70258789 124.97460938 -92.41845703 124.54296875 C-89.4375 123.625 -89.4375 123.625 -87.4375 123.625 C-87.14617187 124.45902344 -86.85484375 125.29304687 -86.5546875 126.15234375 C-82.36324143 137.65904947 -77.23265238 147.85794047 -66.06640625 153.91015625 C-53.6185589 159.61286464 -40.37464384 158.77968293 -27.48828125 154.890625 C-21.94433714 152.59070452 -17.77638849 149.63333274 -14.4375 144.625 C-12.56660736 140.014586 -12.16733871 136.08467736 -12.1875 131.125 C-12.18234375 129.8565625 -12.1771875 128.588125 -12.171875 127.28125 C-12.62337863 121.06643534 -14.59388805 116.50742599 -18.4375 111.625 C-23.65525849 107.44543479 -28.81237835 104.9834392 -35.0625 102.6875 C-35.97620361 102.34396484 -36.88990723 102.00042969 -37.83129883 101.64648438 C-44.18547468 99.3099664 -50.59186128 97.38838273 -57.125 95.625 C-70.95429036 91.86332996 -84.17738284 86.68064125 -95.4375 77.625 C-96.39849609 76.92310547 -96.39849609 76.92310547 -97.37890625 76.20703125 C-106.27932194 69.34429172 -110.81043036 58.5405591 -112.4375 47.625 C-113.90871238 32.28461164 -112.45962501 18.53762113 -102.61328125 6.1171875 C-91.98347596 -6.05842431 -77.29788869 -13.82165465 -61.11035156 -15.20068359 C-38.99482825 -16.64300033 -17.51946391 -15.14125614 0 0 Z " fill="#45474A" transform="translate(277.4375,364.375)"/>
<path d="M0 0 C11.15252002 9.78144559 19.46082562 23.34330249 23.0625 37.75 C23.1875 40.6875 23.1875 40.6875 23.0625 42.75 C16.70939036 45.32293395 10.37589987 46.97136731 3.6875 48.4375 C2.19283203 48.77491211 2.19283203 48.77491211 0.66796875 49.11914062 C-6.63867781 50.75 -6.63867781 50.75 -8.9375 50.75 C-9.15664063 49.87859375 -9.37578125 49.0071875 -9.6015625 48.109375 C-13.35098048 34.02619528 -18.31333594 21.41021423 -31.5 13.75 C-40.97999388 9.85975041 -55.07768376 9.52567972 -64.8125 12.859375 C-67.78126384 14.26802315 -70.30256419 15.7933645 -72.9375 17.75 C-74.04738281 18.52730469 -74.04738281 18.52730469 -75.1796875 19.3203125 C-88.25105244 29.53077493 -93.29366362 46.70753608 -95.65991211 62.44509888 C-96.43542686 68.88444615 -96.37765745 75.37424062 -96.32861328 81.85058594 C-96.31246744 84.38010164 -96.32859727 86.90803087 -96.34765625 89.4375 C-96.36061844 99.2854669 -95.56093782 108.20552959 -92.9375 117.75 C-92.63948486 118.84634766 -92.63948486 118.84634766 -92.33544922 119.96484375 C-88.38770819 133.36497287 -81.55182962 145.15443225 -69.24609375 152.31640625 C-58.38192747 157.86709382 -46.71960867 158.44638112 -34.9375 155.1875 C-24.30086192 151.36785939 -17.98352095 144.76319783 -12.9375 134.75 C-11.37870284 130.80429469 -10.12527696 126.81996562 -8.9375 122.75 C-8.27783037 120.74768124 -7.61300961 118.7470306 -6.9375 116.75 C3.47631577 119.47287843 13.76248374 122.63048001 24.0625 125.75 C23.55391534 131.60524389 22.36255478 136.28699798 19.9375 141.625 C19.6269165 142.31972412 19.31633301 143.01444824 18.99633789 143.73022461 C16.30699763 149.56356557 13.06525156 154.71850388 9.0625 159.75 C8.59328125 160.38164063 8.1240625 161.01328125 7.640625 161.6640625 C1.87215912 169.02047686 -6.42039646 174.09981277 -14.9375 177.75 C-15.74574219 178.09933594 -16.55398438 178.44867187 -17.38671875 178.80859375 C-37.52230994 186.8334352 -63.21569385 186.50438506 -83.15625 178.01953125 C-102.75932161 169.0866017 -117.2771805 153.31076544 -125.0625 133.25 C-137.28069494 100.36154055 -136.87829644 60.72300537 -122.53125 28.6015625 C-113.10592748 10.32690938 -98.9302552 -3.35035846 -79.9375 -11.25 C-53.12843327 -19.70390202 -22.62633276 -17.33214905 0 0 Z " fill="#45474A" transform="translate(910.9375,364.25)"/>
<path d="M0 0 C13.95871273 9.30580849 20.1956683 24.15983704 23.55322266 40.07470703 C25.22298549 48.65707713 25.48979202 57.10646485 25.40429688 65.82861328 C25.38281272 68.42184847 25.40426922 71.01231518 25.4296875 73.60546875 C25.44519233 82.30732125 24.85999297 90.62703968 23.09375 99.16015625 C22.93773315 99.91441895 22.78171631 100.66868164 22.62097168 101.44580078 C19.40504214 115.48022671 11.77570704 129.51776343 -0.44140625 137.4453125 C-10.43213384 142.95844393 -23.91375723 143.89471081 -34.9921875 141.23046875 C-37.22475839 140.30410687 -39.11180349 139.26715344 -41.1171875 137.921875 C-42.138125 137.26832031 -42.138125 137.26832031 -43.1796875 136.6015625 C-57.72992475 126.51560259 -63.96231394 110.51275265 -67.19921875 93.62890625 C-68.49904137 85.48074562 -68.55792363 77.34219737 -68.5546875 69.109375 C-68.55542267 68.29572479 -68.55615784 67.48207458 -68.55691528 66.64376831 C-68.50402096 44.30235923 -65.71055921 21.82523105 -49.51171875 5.046875 C-35.4910796 -7.39558454 -16.11050817 -9.08399738 0 0 Z " fill="#F1F1F1" transform="translate(428.1171875,380.078125)"/>
<path d="M0 0 C10.56 0 21.12 0 32 0 C32 45.21 32 90.42 32 137 C21.44 137 10.88 137 0 137 C0 91.79 0 46.58 0 0 Z " fill="#484A4C" transform="translate(714,408)"/>
<path d="M0 0 C5.65167817 3.35479042 9.83967315 7.94328777 12.875 13.75 C13.4375 16 13.4375 16 13.4375 20 C9.17133684 21.13764351 5.87263689 22 1.4375 22 C1.13457031 21.31292969 0.83164062 20.62585938 0.51953125 19.91796875 C-1.99377915 14.44421492 -1.99377915 14.44421492 -5.8125 9.875 C-11.04641986 8.20966186 -15.68948285 8.36388097 -20.875 10.125 C-26.14876498 13.80437092 -28.35167125 18.83774653 -29.5625 25 C-30.4980297 34.96872548 -31.51851843 47.42026927 -25.5625 56 C-21.91380976 59.56181666 -19.29986691 61.14506414 -14.25 61.1875 C-10.57234496 61.12266954 -7.74784141 61.0022146 -4.5625 59 C-0.57587904 54.3299583 0.36643395 49.89086325 1.4375 44 C-3.8425 43.67 -9.1225 43.34 -14.5625 43 C-14.5625 39.7 -14.5625 36.4 -14.5625 33 C-4.9925 33 4.5775 33 14.4375 33 C14.4375 45.54 14.4375 58.08 14.4375 71 C11.4675 71 8.4975 71 5.4375 71 C4.7775 68.69 4.1175 66.38 3.4375 64 C2.509375 64.99 2.509375 64.99 1.5625 66 C-0.5625 68 -0.5625 68 -2.5625 68 C-2.5625 68.66 -2.5625 69.32 -2.5625 70 C-9.53409302 73.29542344 -18.68910171 73.297631 -26 70.875 C-34.70478089 66.87600878 -40.05013087 59.53384032 -43.375 50.75 C-46.21804177 40.28760629 -46.69149659 24.76691904 -41.5625 15 C-32.62746936 0.60467286 -16.36792898 -7.47888447 0 0 Z " fill="#087BCD" transform="translate(463.5625,613)"/>
<path d="M0 0 C6.89589747 6.23914533 9.93734431 11.77162143 10.91015625 21.11328125 C11.1604175 28.80609436 10.10568891 36.59354196 5.25 42.8125 C-0.15605412 48.08983854 -4.83049647 49.72801965 -12.33984375 49.671875 C-16.01385096 49.13593537 -18.7955668 46.9544332 -21.375 44.375 C-21.705 51.635 -22.035 58.895 -22.375 66.375 C-26.335 66.375 -30.295 66.375 -34.375 66.375 C-34.375 44.265 -34.375 22.155 -34.375 -0.625 C-30.745 -0.625 -27.115 -0.625 -23.375 -0.625 C-23.045 1.025 -22.715 2.675 -22.375 4.375 C-21.611875 3.570625 -20.84875 2.76625 -20.0625 1.9375 C-14.7321933 -3.14488546 -6.45528544 -3.1081004 0 0 Z " fill="#067ACD" transform="translate(848.375,634.625)"/>
<path d="M0 0 C6.89589747 6.23914533 9.93734431 11.77162143 10.91015625 21.11328125 C11.1604175 28.80609436 10.10568891 36.59354196 5.25 42.8125 C-0.15605412 48.08983854 -4.83049647 49.72801965 -12.33984375 49.671875 C-16.01385096 49.13593537 -18.7955668 46.9544332 -21.375 44.375 C-21.705 51.635 -22.035 58.895 -22.375 66.375 C-26.335 66.375 -30.295 66.375 -34.375 66.375 C-34.375 44.265 -34.375 22.155 -34.375 -0.625 C-30.745 -0.625 -27.115 -0.625 -23.375 -0.625 C-23.045 1.025 -22.715 2.675 -22.375 4.375 C-21.611875 3.570625 -20.84875 2.76625 -20.0625 1.9375 C-14.7321933 -3.14488546 -6.45528544 -3.1081004 0 0 Z " fill="#067ACD" transform="translate(673.375,634.625)"/>
<path d="M0 0 C5.76912362 3.46877686 10.00011889 8.66479827 12.09375 15.0703125 C13.63105994 22.8337277 13.68176151 31.47579604 9.5625 38.4375 C7.74755332 40.96390578 5.88946254 43.36332726 3.5625 45.4375 C2.9025 45.4375 2.2425 45.4375 1.5625 45.4375 C1.5625 46.0975 1.5625 46.7575 1.5625 47.4375 C-6.03626425 49.73146657 -14.21207883 51.19480437 -21.75 47.9375 C-27.54919372 44.59135332 -31.47455113 38.75462637 -33.4375 32.4375 C-34.88951984 15.46912866 -34.88951984 15.46912866 -30.9140625 9.1484375 C-22.78543516 -0.27044815 -12.39361742 -5.62036139 0 0 Z " fill="#077ACD" transform="translate(558.4375,634.5625)"/>
<path d="M0 0 C4.29 0 8.58 0 13 0 C13.01458252 1.43722412 13.02916504 2.87444824 13.04418945 4.35522461 C13.10241755 9.71728669 13.17964884 15.07893958 13.26245117 20.44067383 C13.29558546 22.75571014 13.32365272 25.070825 13.34643555 27.38598633 C13.3801931 30.72511078 13.43252031 34.06352281 13.48828125 37.40234375 C13.49467117 38.42770737 13.5010611 39.45307098 13.50764465 40.50950623 C13.64609533 47.36649538 13.99478802 54.90087515 19 60.0625 C25.38268049 62.05708765 31.94088497 61.86240951 38 59 C40.43984498 56.99584162 40.97123955 56.08628136 42 53 C42.11553891 51.26722838 42.17645135 49.53056879 42.20532227 47.79418945 C42.22526749 46.73331619 42.24521271 45.67244293 42.26576233 44.579422 C42.28247482 43.43559555 42.29918732 42.2917691 42.31640625 41.11328125 C42.33718735 39.94113571 42.35796844 38.76899017 42.37937927 37.56132507 C42.44483818 33.81177714 42.50374296 30.06215837 42.5625 26.3125 C42.60568868 23.77277909 42.64930308 21.23306538 42.69335938 18.69335938 C42.8005159 12.46231245 42.90179388 6.23119416 43 0 C46.96 0 50.92 0 55 0 C55.09924142 7.38318 55.17164627 14.76596744 55.21972656 22.1496582 C55.23978062 24.65884164 55.26703085 27.16797869 55.30175781 29.67700195 C55.35054754 33.29389933 55.37303182 36.9101761 55.390625 40.52734375 C55.41127014 41.64020248 55.43191528 42.75306122 55.45318604 43.89964294 C55.45554291 52.17199481 54.02933568 58.41262879 48.625 64.8125 C39.57791114 72.35174072 31.39978276 72.99687401 20 72 C13.31432739 70.64561213 8.9602592 67.63586908 4.47265625 62.5859375 C0.06322105 54.84310964 -0.4226382 46.81279695 -0.29296875 38.0859375 C-0.28872391 36.99028473 -0.28447906 35.89463196 -0.28010559 34.76577759 C-0.263452 31.30192401 -0.22582458 27.83867464 -0.1875 24.375 C-0.17243596 22.01172721 -0.15875058 19.64844521 -0.14648438 17.28515625 C-0.11359213 11.52320838 -0.06190263 5.76170626 0 0 Z " fill="#077ACD" transform="translate(138,612)"/>
<path d="M0 0 C1.02867187 -0.01740234 1.02867187 -0.01740234 2.078125 -0.03515625 C7.51103426 -0.00405181 11.63092202 1.16348541 15.64453125 4.91015625 C19.73325211 10.25694507 20.18510857 13.4806626 20.31640625 20.1015625 C20.33718735 20.96437836 20.35796844 21.82719421 20.37937927 22.71615601 C20.44486034 25.47735493 20.50375298 28.23865038 20.5625 31 C20.6056866 32.86980172 20.64930093 34.73959362 20.69335938 36.609375 C20.80054024 41.19781728 20.90181175 45.78635683 21 50.375 C17.04 50.375 13.08 50.375 9 50.375 C8.67 49.055 8.34 47.735 8 46.375 C6.515 46.87 6.515 46.87 5 47.375 C5 48.035 5 48.695 5 49.375 C-0.8715428 52.10849292 -6.635621 52.03145167 -13 51.375 C-17.1020781 49.87631233 -19.64784392 46.97816431 -22 43.375 C-23.31308085 38.68093254 -23.76452925 33.99436841 -21.5 29.5625 C-17.5225829 23.80678378 -12.28582592 20.9007269 -5.48828125 19.64453125 C-0.99309761 19.15761183 3.48657174 19.22314634 8 19.375 C7.34 16.405 6.68 13.435 6 10.375 C-0.75387568 9.06697424 -0.75387568 9.06697424 -7 11.375 C-8.36078035 13.89872901 -8.36078035 13.89872901 -9 16.375 C-17.57142857 15.375 -17.57142857 15.375 -21 14.375 C-20.40316025 11.18015192 -19.41582738 9.28018331 -17.3125 6.8125 C-16.83425781 6.23371094 -16.35601563 5.65492188 -15.86328125 5.05859375 C-11.06069451 0.71914955 -6.28332173 -0.1062968 0 0 Z " fill="#097CCD" transform="translate(889,632.625)"/>
<path d="M0 0 C0.70479492 0.00684814 1.40958984 0.01369629 2.13574219 0.02075195 C9.02281038 0.23467089 12.21007937 1.75260041 17.13378906 6.4909668 C19.75481677 10.62926918 19.60259394 14.08723399 19.609375 18.89453125 C19.62591125 19.79749435 19.64244751 20.70045746 19.65948486 21.63078308 C19.70792057 24.50392489 19.72932588 27.37653757 19.75 30.25 C19.7781634 32.20250051 19.80809135 34.15497643 19.83984375 36.10742188 C19.91367837 40.88407102 19.96328007 45.66042719 20 50.4375 C16.37 50.4375 12.74 50.4375 9 50.4375 C9 48.7875 9 47.1375 9 45.4375 C8.52949219 45.78683594 8.05898438 46.13617187 7.57421875 46.49609375 C6.95160156 46.95113281 6.32898438 47.40617188 5.6875 47.875 C5.07261719 48.32746094 4.45773437 48.77992188 3.82421875 49.24609375 C-1.37334055 52.64064533 -8.06353373 52.2090263 -14 51.4375 C-18.1370924 49.25499383 -20.43943253 46.27835121 -23 42.4375 C-23.58046586 37.98977455 -23.54701115 33.80502787 -21.875 29.625 C-16.37260678 23.20554124 -11.33297716 20.8190199 -3 19.4375 C0.68504371 19.22770791 4.31505431 19.24505603 8 19.4375 C7.61400037 14.77176218 7.61400037 14.77176218 5.875 10.5 C1.67390701 8.11938064 -3.50484124 9.34776454 -8 10.4375 C-8.66 12.4175 -9.32 14.3975 -10 16.4375 C-17.625 15.5625 -17.625 15.5625 -21 14.4375 C-20.64728898 10.44010848 -19.20218055 8.00579932 -16.7421875 4.8671875 C-11.73033363 0.75432087 -6.31668173 -0.09404302 0 0 Z " fill="#067ACD" transform="translate(780,632.5625)"/>
<path d="M0 0 C5.89487783 3.51449376 9.05113482 8.15908705 11.5625 14.4375 C11.5625 18.3975 11.5625 22.3575 11.5625 26.4375 C0.6725 26.4375 -10.2175 26.4375 -21.4375 26.4375 C-20.18542673 34.62080956 -20.18542673 34.62080956 -15.4375 39.4375 C-12.21820427 41.04714787 -8.91862288 41.04436242 -5.4375 40.4375 C-2.21795355 37.90296343 -0.73317565 36.32452695 0.5625 32.4375 C3.8625 33.0975 7.1625 33.7575 10.5625 34.4375 C11.5625 38.4375 11.5625 38.4375 10.62890625 40.21875 C5.83208521 45.70083119 1.63421748 48.97119942 -5.74609375 49.81640625 C-12.92351934 50.0559113 -19.49980104 49.81457172 -25.4375 45.4375 C-32.31735144 38.31989992 -33.86321218 31.49543044 -33.79663086 21.81860352 C-33.61228375 14.6414074 -32.35295113 10.41610169 -27.2734375 5.2265625 C-19.65300778 -1.84777779 -10.0512707 -4.55813439 0 0 Z " fill="#077ACD" transform="translate(287.4375,634.5625)"/>
<path d="M0 0 C4.34536391 2.3849333 7.04353161 5.47616816 9 10 C9.24050903 11.99957275 9.24050903 11.99957275 9.22705078 14.12597656 C9.22689972 14.92650452 9.22674866 15.72703247 9.22659302 16.55181885 C9.21627045 17.40612488 9.20594788 18.26043091 9.1953125 19.140625 C9.1924826 20.02280701 9.18965271 20.90498901 9.18673706 21.81390381 C9.17555961 24.62607499 9.15045951 27.4379254 9.125 30.25 C9.11496705 32.15884956 9.10584175 34.06770412 9.09765625 35.9765625 C9.07562824 40.65116489 9.04111511 45.32552809 9 50 C5.04 50 1.08 50 -3 50 C-3.02505615 48.92516357 -3.0501123 47.85032715 -3.07592773 46.74291992 C-3.17007495 42.75646978 -3.27027785 38.77019091 -3.37231445 34.78393555 C-3.41563562 33.05839035 -3.45731273 31.33280307 -3.49731445 29.60717773 C-3.55508526 27.12731236 -3.61876003 24.64765828 -3.68359375 22.16796875 C-3.70030624 21.39599655 -3.71701874 20.62402435 -3.73423767 19.82865906 C-3.82227895 16.64817067 -3.98745195 14.03764416 -5 11 C-10.63181673 10.38423037 -10.63181673 10.38423037 -15.8984375 12.04296875 C-18.03929768 13.82353782 -19.74757112 15.49514224 -21 18 C-21.15608023 20.40560273 -21.25804458 22.78702772 -21.31640625 25.1953125 C-21.33718735 25.90275604 -21.35796844 26.61019958 -21.37937927 27.33908081 C-21.44481078 29.60095425 -21.50372974 31.86294462 -21.5625 34.125 C-21.60569133 35.65756422 -21.64930582 37.19011657 -21.69335938 38.72265625 C-21.80048555 42.48165073 -21.9017709 46.24076292 -22 50 C-25.96 50 -29.92 50 -34 50 C-34 33.83 -34 17.66 -34 1 C-30.04 1 -26.08 1 -22 1 C-21.67 3.31 -21.34 5.62 -21 8 C-19.9171875 6.8553125 -19.9171875 6.8553125 -18.8125 5.6875 C-12.98057087 0.11476772 -8.04836371 -1.4392639 0 0 Z " fill="#067ACD" transform="translate(957,633)"/>
<path d="M0 0 C3.96 0 7.92 0 12 0 C12.01981934 1.11036621 12.03963867 2.22073242 12.06005859 3.36474609 C12.13601081 7.47614602 12.2247436 11.58718718 12.31738281 15.69824219 C12.35571565 17.47909473 12.39056089 19.26002584 12.421875 21.04101562 C12.46743271 23.59794234 12.52544107 26.1543261 12.5859375 28.7109375 C12.59748871 29.50994476 12.60903992 30.30895203 12.62094116 31.13217163 C12.57258944 35.53457212 12.57258944 35.53457212 15 39 C17.04522492 39.21265492 17.04522492 39.21265492 19.3125 38.9375 C20.07175781 38.88464844 20.83101562 38.83179688 21.61328125 38.77734375 C25.13431606 37.63055827 26.66748719 35.85655544 29 33 C29.50762732 30.23107243 29.72264271 28.05599688 29.70703125 25.29296875 C29.72215256 24.56757401 29.73727386 23.84217926 29.75285339 23.09480286 C29.79562827 20.79204987 29.80455741 18.49061016 29.8125 16.1875 C29.83565261 14.62040804 29.86101956 13.05334714 29.88867188 11.48632812 C29.95142194 7.65743655 29.98383701 3.82936016 30 0 C33.96 0 37.92 0 42 0 C42 16.17 42 32.34 42 49 C38.37 49 34.74 49 31 49 C30.67 47.02 30.34 45.04 30 43 C29.0925 43.78375 28.185 44.5675 27.25 45.375 C22.73127817 49.27753249 19.23812239 50.38866847 13.3203125 50.26171875 C8.86434271 49.75910936 5.20386324 48.20386324 2 45 C2 44.01 2 43.02 2 42 C1.34 42 0.68 42 0 42 C0 28.14 0 14.28 0 0 Z " fill="#0479CC" transform="translate(582,634)"/>
<path d="M0 0 C2.68513392 2.41871013 5.13048309 4.89438803 7 8 C6.67 8.99 6.34 9.98 6 11 C2.12137916 12.39044898 -0.86462003 13 -5 13 C-5.33 11.35 -5.66 9.7 -6 8 C-7.58129029 7.77668801 -9.16521089 7.57195356 -10.75 7.375 C-11.63171875 7.25898437 -12.5134375 7.14296875 -13.421875 7.0234375 C-16.22859878 6.99792183 -17.63384866 7.55156156 -20 9 C-20 10.98 -20 12.96 -20 15 C-18.37191406 15.38091797 -18.37191406 15.38091797 -16.7109375 15.76953125 C-15.26553276 16.11680382 -13.82022535 16.46448164 -12.375 16.8125 C-11.66214844 16.97814453 -10.94929688 17.14378906 -10.21484375 17.31445312 C-3.26837187 19.00327427 2.28850639 21.30131238 6.86328125 26.96875 C8.88825008 30.587251 8.75282264 34.00251176 8 38 C5.95514513 42.84307732 2.49086506 45.75008749 -2.171875 48.08984375 C-8.44327608 50.10812614 -17.08136171 50.11059636 -23.42578125 48.3125 C-27.53424626 46.12617716 -30.372274 42.74251885 -33 39 C-33 38.01 -33 37.02 -33 36 C-31.73160474 35.49384702 -30.46016898 34.99530901 -29.1875 34.5 C-28.47980469 34.2215625 -27.77210938 33.943125 -27.04296875 33.65625 C-25 33 -25 33 -22 33 C-21.773125 33.78375 -21.54625 34.5675 -21.3125 35.375 C-20.24368494 38.1443309 -20.24368494 38.1443309 -17.78125 39.1875 C-14.6353171 40.10653658 -12.42834397 40.01546313 -9.1875 39.625 C-8.21167969 39.51414062 -7.23585937 39.40328125 -6.23046875 39.2890625 C-5.12638672 39.14597656 -5.12638672 39.14597656 -4 39 C-4.33 36.36 -4.66 33.72 -5 31 C-5.6290625 30.81824219 -6.258125 30.63648438 -6.90625 30.44921875 C-24.11674118 25.39493294 -24.11674118 25.39493294 -30.875 19.3125 C-32.68851537 15.5847184 -32.61380488 12.05675638 -32 8 C-29.87225807 3.30123657 -27.09701185 0.76410645 -22.4765625 -1.3125 C-15.55511538 -3.23391119 -6.48486874 -3.11273699 0 0 Z " fill="#097BCD" transform="translate(238,635)"/>
<path d="M0 0 C1.29550781 -0.02578125 2.59101563 -0.0515625 3.92578125 -0.078125 C8.77494512 0.34485503 11.97788943 1.70220442 15.5859375 4.96875 C16.31683594 5.85046875 16.31683594 5.85046875 17.0625 6.75 C17.56523437 7.3378125 18.06796875 7.925625 18.5859375 8.53125 C19.6875 10.25 19.6875 10.25 19.6875 13.25 C15.81065913 14.44287411 12.77128077 15.25 8.6875 15.25 C8.275 14.445625 7.8625 13.64125 7.4375 12.8125 C5.99938483 10.14524052 5.99938483 10.14524052 3.86328125 9.66015625 C0.30701117 9.18028986 -2.89073804 8.96683927 -6.3125 10.25 C-6.3125 12.23 -6.3125 14.21 -6.3125 16.25 C-1.8606422 18.32063153 2.51910814 19.79342174 7.25 21.125 C13.54954507 23.02934523 17.49573737 24.81941502 21.125 30.5 C22.18979599 35.70566931 21.7132781 40.40359943 19.125 45.0625 C12.14849921 51.32346225 5.52361372 52.02275895 -3.51953125 51.6328125 C-10.01905501 50.97683585 -13.96254216 48.99282532 -18.3125 44.1875 C-20.3125 41.25 -20.3125 41.25 -20.3125 38.25 C-19.04410474 37.74384702 -17.77266898 37.24530901 -16.5 36.75 C-15.79230469 36.4715625 -15.08460938 36.193125 -14.35546875 35.90625 C-12.3125 35.25 -12.3125 35.25 -9.3125 35.25 C-7.95971885 37.23689731 -6.62681695 39.23745218 -5.3125 41.25 C-2.51092552 42.18385816 -0.65802197 42.41354595 2.25 42.4375 C3.03503906 42.45167969 3.82007813 42.46585938 4.62890625 42.48046875 C6.9118545 42.44167509 6.9118545 42.44167509 8.6875 40.25 C8.85431109 37.16652174 8.85431109 37.16652174 8.6875 34.25 C4.58487808 32.06893744 0.65984313 30.5530428 -3.8125 29.3125 C-10.11849428 27.42861117 -14.55955287 25.8794207 -18.3125 20.25 C-19.04555677 16.14007517 -19.11170557 12.35188289 -18.3125 8.25 C-13.44687271 1.57810736 -7.97728748 0.0946859 0 0 Z " fill="#087BCD" transform="translate(363.3125,632.75)"/>
<path d="M0 0 C11.22 0 22.44 0 34 0 C34 10.56 34 21.12 34 32 C22.78 32 11.56 32 0 32 C0 21.44 0 10.88 0 0 Z " fill="#444649" transform="translate(713,352)"/>
<path d="M0 0 C3.96 0 7.92 0 12 0 C12.06790178 7.5889816 12.12288859 15.17784931 12.15543652 22.76706123 C12.17106162 26.29143732 12.19224144 29.81559394 12.22631836 33.33984375 C12.26528952 37.39585421 12.27973523 41.4516358 12.29296875 45.5078125 C12.30845261 46.76739777 12.32393646 48.02698303 12.33988953 49.32473755 C12.34011612 50.50550873 12.34034271 51.68627991 12.34057617 52.90283203 C12.34723801 53.93763702 12.35389984 54.97244202 12.36076355 56.03860474 C11.74224086 61.11586427 9.78199886 64.25200109 6.125 67.75 C0.8729989 71.53144079 -2.84588501 72.24587131 -9.3125 72.125 C-10.56675781 72.10695313 -11.82101562 72.08890625 -13.11328125 72.0703125 C-14.06589844 72.04710937 -15.01851562 72.02390625 -16 72 C-16 68.7 -16 65.4 -16 62 C-13.55859375 61.90234375 -11.1171875 61.8046875 -8.67578125 61.70703125 C-5.84151374 60.95812261 -4.09264817 60.00436115 -2.06575012 57.87348938 C0.39736268 53.54356665 -0.27709982 48.10040171 -0.29296875 43.26171875 C-0.27784744 42.02581497 -0.26272614 40.78991119 -0.24714661 39.51655579 C-0.21149278 36.24321905 -0.19711157 32.97070394 -0.19311523 29.69720459 C-0.18376844 26.3519655 -0.14592739 23.00718269 -0.11132812 19.66210938 C-0.04840238 13.1080051 -0.01612432 6.55437978 0 0 Z " fill="#0278CC" transform="translate(732,612)"/>
<path d="M0 0 C0 3.63 0 7.26 0 11 C-1.051875 11.20625 -2.10375 11.4125 -3.1875 11.625 C-7.66918482 12.87950812 -9.35444234 15.26509507 -12 19 C-13.42267862 21.84535725 -13.21971869 24.36218552 -13.31640625 27.5390625 C-13.35830078 28.84101562 -13.40019531 30.14296875 -13.44335938 31.484375 C-13.48317299 32.86458045 -13.52288522 34.24478883 -13.5625 35.625 C-13.60569407 37.01303415 -13.64930865 38.40105528 -13.69335938 39.7890625 C-13.79972 43.19260256 -13.90174714 46.59621778 -14 50 C-17.96 50 -21.92 50 -26 50 C-26 33.83 -26 17.66 -26 1 C-22.37 1 -18.74 1 -15 1 C-15 3.97 -15 6.94 -15 10 C-14.34 10 -13.68 10 -13 10 C-12.95875 9.443125 -12.9175 8.88625 -12.875 8.3125 C-11.53375322 4.76777636 -8.99075278 3.21315705 -6 1 C-3 0 -3 0 0 0 Z " fill="#0579CC" transform="translate(518,633)"/>
<path d="M0 0 C0 3.63 0 7.26 0 11 C-1.051875 11.20625 -2.10375 11.4125 -3.1875 11.625 C-7.66918482 12.87950812 -9.35444234 15.26509507 -12 19 C-13.42267862 21.84535725 -13.21971869 24.36218552 -13.31640625 27.5390625 C-13.35830078 28.84101562 -13.40019531 30.14296875 -13.44335938 31.484375 C-13.48317299 32.86458045 -13.52288522 34.24478883 -13.5625 35.625 C-13.60569407 37.01303415 -13.64930865 38.40105528 -13.69335938 39.7890625 C-13.79972 43.19260256 -13.90174714 46.59621778 -14 50 C-17.96 50 -21.92 50 -26 50 C-26 33.83 -26 17.66 -26 1 C-22.37 1 -18.74 1 -15 1 C-15 3.97 -15 6.94 -15 10 C-14.34 10 -13.68 10 -13 10 C-12.95875 9.443125 -12.9175 8.88625 -12.875 8.3125 C-11.53375322 4.76777636 -8.99075278 3.21315705 -6 1 C-3 0 -3 0 0 0 Z " fill="#0579CC" transform="translate(337,633)"/>
<path d="M0 0 C4.19578784 3.03525077 5.99230563 5.96152817 7 11 C7.71837952 18.8358628 7.21868527 24.29973516 3 31 C0.50959058 33.49040942 -0.43154357 33.32391014 -3.875 33.375 C-7.19147828 33.29376062 -8.64975798 33.21890126 -11.5 31.4375 C-15.89625493 24.29358573 -15.80554423 16.18010991 -15 8 C-12.35931734 0.26479277 -7.64948741 -1.16462784 0 0 Z " fill="#EEF0F1" transform="translate(552,642)"/>
<path d="M0 0 C6.47734346 0.48765597 6.47734346 0.48765597 9.57421875 3.4296875 C12.12738384 7.89772641 12.31839518 11.84312766 12.38671875 16.8671875 C12.41572266 17.56650391 12.44472656 18.26582031 12.47460938 18.98632812 C12.53717818 24.13140936 11.41003738 26.94714963 8.07421875 31.0546875 C5.4155813 33.16326203 4.08720668 33.05492364 0.63671875 32.9921875 C-3.8080788 31.82250393 -5.17226144 30.73688178 -7.92578125 27.0546875 C-8.65933322 23.53864546 -8.62464768 20.13474703 -8.55078125 16.5546875 C-8.57011719 15.61753906 -8.58945312 14.68039062 -8.609375 13.71484375 C-8.57564132 8.95839479 -8.49996596 6.77196556 -5.44921875 2.9609375 C-4.61648438 2.331875 -3.78375 1.7028125 -2.92578125 1.0546875 C-1.92578125 0.0546875 -1.92578125 0.0546875 0 0 Z " fill="#EFF0F1" transform="translate(833.92578125,641.9453125)"/>
<path d="M0 0 C6.47734346 0.48765597 6.47734346 0.48765597 9.57421875 3.4296875 C12.12738384 7.89772641 12.31839518 11.84312766 12.38671875 16.8671875 C12.41572266 17.56650391 12.44472656 18.26582031 12.47460938 18.98632812 C12.53717818 24.13140936 11.41003738 26.94714963 8.07421875 31.0546875 C5.4155813 33.16326203 4.08720668 33.05492364 0.63671875 32.9921875 C-3.8080788 31.82250393 -5.17226144 30.73688178 -7.92578125 27.0546875 C-8.65933322 23.53864546 -8.62464768 20.13474703 -8.55078125 16.5546875 C-8.57011719 15.61753906 -8.58945312 14.68039062 -8.609375 13.71484375 C-8.57564132 8.95839479 -8.49996596 6.77196556 -5.44921875 2.9609375 C-4.61648438 2.331875 -3.78375 1.7028125 -2.92578125 1.0546875 C-1.92578125 0.0546875 -1.92578125 0.0546875 0 0 Z " fill="#EFF0F1" transform="translate(658.92578125,641.9453125)"/>
<path d="M0 0 C0.76140684 7.61406844 0.76140684 7.61406844 -1.04296875 10.8984375 C-2.82353782 13.03929768 -4.49514224 14.74757112 -7 16 C-8.64142541 16.14640501 -10.2898141 16.22096589 -11.9375 16.25 C-12.81277344 16.27578125 -13.68804688 16.3015625 -14.58984375 16.328125 C-17 16 -17 16 -18.81640625 14.734375 C-20.57307916 12.16024043 -20.14518961 9.8344582 -19.62890625 6.8671875 C-19 5 -19 5 -16.9375 3.125 C-11.25565234 0.94897324 -6.13885464 -0.30694273 0 0 Z " fill="#ECEFF1" transform="translate(788,659)"/>
<path d="M0 0 C1.63001953 0.01353516 1.63001953 0.01353516 3.29296875 0.02734375 C4.12441406 0.03894531 4.95585938 0.05054688 5.8125 0.0625 C6.4396777 8.05901568 6.4396777 8.05901568 3.9375 12.0625 C0.83661141 14.98098337 -0.95514162 15.23902232 -5.125 15.3125 C-6.00027344 15.33828125 -6.87554688 15.3640625 -7.77734375 15.390625 C-10.1875 15.0625 -10.1875 15.0625 -11.9765625 13.76171875 C-14.02584798 10.88610847 -13.60497987 8.46197894 -13.1875 5.0625 C-9.46242022 0.18136097 -5.86092646 -0.06302071 0 0 Z " fill="#ECEFF1" transform="translate(891.1875,659.9375)"/>
<path d="M0 0 C4.02755007 3.61446801 4.06428383 5.38570297 5 11 C-2.26 11 -9.52 11 -17 11 C-16 4 -16 4 -14.1875 1.625 C-9.79853885 -1.63537114 -5.16137544 -1.5367545 0 0 Z " fill="#F0F1F1" transform="translate(283,642)"/>
</svg>
