<?xml version="1.0" encoding="UTF-8" standalone="no"?>
<svg
   version="1.1"
   width="21059.621"
   height="21059.621"
   id="svg171"
   sodipodi:docname="logo.svg"
   viewBox="0 0 982.79656 982.79656"
   inkscape:version="1.1.2 (0a00cf5339, 2022-02-04)"
   xmlns:inkscape="http://www.inkscape.org/namespaces/inkscape"
   xmlns:sodipodi="http://sodipodi.sourceforge.net/DTD/sodipodi-0.dtd"
   xmlns="http://www.w3.org/2000/svg"
   xmlns:svg="http://www.w3.org/2000/svg"><defs
   id="defs175" />
<sodipodi:namedview
   id="namedview173"
   pagecolor="#ffffff"
   bordercolor="#666666"
   borderopacity="1.0"
   inkscape:pageshadow="2"
   inkscape:pageopacity="0.0"
   inkscape:pagecheckerboard="0"
   showgrid="false"
   fit-margin-top="48"
   fit-margin-right="48"
   fit-margin-left="0"
   fit-margin-bottom="0"
   inkscape:zoom="0.02"
   inkscape:cx="6100"
   inkscape:cy="1500"
   inkscape:window-width="1920"
   inkscape:window-height="1115"
   inkscape:window-x="0"
   inkscape:window-y="0"
   inkscape:window-maximized="1"
   inkscape:current-layer="svg171" />
<style
   id="style109" />
=&quot;width:10px;height:auto;&quot;&gt;
<path
   d="m 552.27827,6.5182974 c 1.07975,0.139219 2.1595,0.278438 3.27197,0.421875 52.28184,6.7916876 104.68127,21.8606316 151.47168,46.4028316 2.70714,1.410098 5.42899,2.789988 8.15088,4.171388 12.71533,6.48607 25.1116,13.25988 37.10547,21.00391 0.6405,0.41314 1.28101,0.82628 1.94092,1.25195 4.39649,2.85337 8.73756,5.78264 13.05908,8.74805 0.67386,0.45987 1.34771,0.91974 2.04199,1.39355 10.12917,6.93592 19.77041,14.309178 29.20655,22.159178 2.41253,1.99353 4.86737,3.93328 7.31396,5.88477 6.43159,5.26833 12.42685,10.99494 18.46289,16.70557 1.99497,1.87608 4.00535,3.73409 6.02148,5.5874 11.62518,10.70335 11.62518,10.70335 16.49219,16.55859 1.52462,1.78552 3.14584,3.39452 4.83594,5.02344 3.78669,3.71892 7.05164,7.80575 10.375,11.9375 1.99997,2.44441 4.06019,4.79183 6.1875,7.125 21.41665,23.90893 38.52542,52.32609 53.84814,80.40479 0.78031,1.42663 1.5648,2.851 2.3545,4.27246 11.32598,20.38677 20.06001,42.00073 27.85986,63.94775 0.47131,1.32113 0.47131,1.32113 0.95215,2.66895 11.23813,31.7954 18.68241,64.91619 23.04785,98.33105 0.22647,1.6247 0.22647,1.6247 0.45752,3.28223 5.31837,39.36853 5.00918,81.38466 -0.45752,120.71777 -0.13922,1.07975 -0.27844,2.1595 -0.42188,3.27197 -6.79168,52.28184 -21.86063,104.68127 -46.40283,151.47168 -1.4101,2.70714 -2.78999,5.42899 -4.17138,8.15088 -6.48607,12.71533 -13.25988,25.1116 -21.00391,37.10547 -0.41314,0.6405 -0.82629,1.28101 -1.25195,1.94092 -2.85337,4.39649 -5.78265,8.73756 -8.74805,13.05908 -0.45987,0.67386 -0.91975,1.34771 -1.39355,2.04199 -6.93592,10.12917 -14.30918,19.77041 -22.15918,29.20655 -1.99353,2.41253 -3.93328,4.86737 -5.88477,7.31396 -5.26833,6.43159 -10.99494,12.42685 -16.70557,18.46289 -1.87608,1.99497 -3.73409,4.00535 -5.5874,6.02148 -10.70335,11.62518 -10.70335,11.62518 -16.55859,16.49219 -1.78552,1.52462 -3.39452,3.14584 -5.02344,4.83594 -3.71892,3.78669 -7.80575,7.05164 -11.9375,10.375 -2.44441,1.99997 -4.79183,4.06019 -7.125,6.1875 -23.90893,21.41665 -52.32609,38.52542 -80.40479,53.84814 -1.42663,0.78031 -2.851,1.5648 -4.27246,2.3545 -20.38677,11.32598 -42.00073,20.06001 -63.94775,27.85989 -1.32113,0.4713 -1.32113,0.4713 -2.66895,0.9521 -31.7954,11.2381 -64.91619,18.6824 -98.33105,23.0479 -1.6247,0.2264 -1.6247,0.2264 -3.28223,0.4575 -39.36853,5.3184 -81.38466,5.0092 -120.71777,-0.4575 -1.07975,-0.1393 -2.1595,-0.2785 -3.27197,-0.4219 -52.28184,-6.7917 -104.68127,-21.8606 -151.47168,-46.40284 -2.70714,-1.4101 -5.42899,-2.78999 -8.15088,-4.17138 -12.71533,-6.48607 -25.1116,-13.25988 -37.10547,-21.00391 -0.6405,-0.41314 -1.28101,-0.82629 -1.94092,-1.25195 -4.39649,-2.85337 -8.73756,-5.78265 -13.05908,-8.74805 -0.67386,-0.45987 -1.34771,-0.91975 -2.04199,-1.39355 -10.12917,-6.93592 -19.77041,-14.30918 -29.20655,-22.15918 -2.41253,-1.99353 -4.86737,-3.93328 -7.31396,-5.88477 -6.43159,-5.26833 -12.42685,-10.99494 -18.46289,-16.70557 -1.99497,-1.87608 -4.00535,-3.73409 -6.02148,-5.5874 -11.62518,-10.70335 -11.62518,-10.70335 -16.49219,-16.55859 -1.52462,-1.78552 -3.14584,-3.39452 -4.83594,-5.02344 -3.78669,-3.71892 -7.05164,-7.80575 -10.375,-11.9375 -1.99997,-2.44441 -4.06019,-4.79183 -6.1875,-7.125 -21.416652,-23.90893 -38.525422,-52.32609 -53.848142,-80.40479 -0.78031,-1.42663 -1.5648,-2.851 -2.3545,-4.27246 -11.32598,-20.38677 -20.06001,-42.00073 -27.85986,-63.94775 -0.47131,-1.32113 -0.47131,-1.32113 -0.95215,-2.66895 -11.23813,-31.7954 -18.6824095,-64.91619 -23.0478495,-98.33105 -0.22647,-1.6247 -0.22647,-1.6247 -0.45752,-3.28223 -5.31837,-39.36853 -5.00918,-81.38466 0.45752,-120.71777 0.13922,-1.07975 0.27844,-2.1595 0.42188,-3.27197 6.7916795,-52.28184 21.8606295,-104.68127 46.4028295,-151.47168 1.4101,-2.70714 2.78999,-5.42899 4.17138,-8.15088 6.48607,-12.71533 13.25988,-25.1116 21.00391,-37.10547 0.41314,-0.6405 0.82629,-1.28101 1.25195,-1.94092 2.85337,-4.39649 5.78265,-8.73756 8.74805,-13.05908 0.68981,-1.01079 0.68981,-1.01079 1.39355,-2.04199 6.93592,-10.12917 14.309182,-19.77041 22.159182,-29.20655 1.99353,-2.41253 3.93328,-4.86737 5.88477,-7.31396 5.26833,-6.43159 10.99494,-12.42685 16.70557,-18.46289 1.87608,-1.99497 3.73409,-4.00535 5.5874,-6.02149 10.70335,-11.62517 10.70335,-11.62517 16.55859,-16.49218 1.78552,-1.52462 3.39452,-3.14584 5.02344,-4.83594 3.71892,-3.78669 7.80575,-7.05164 11.9375,-10.375 2.44441,-1.99997 4.79183,-4.06019 7.125,-6.1875 23.90893,-21.416658 52.32609,-38.525428 80.40479,-53.848148 1.42663,-0.7803 2.851,-1.56479 4.27246,-2.35449 20.38677,-11.325989 42.00073,-20.060012 63.94775,-27.859865 1.32113,-0.471313 1.32113,-0.471313 2.66895,-0.952148 31.7954,-11.238135 64.91619,-18.682408 98.33105,-23.0478516 1.08313,-0.150981 2.16627,-0.301962 3.28223,-0.457519 39.36853,-5.31836594 81.38465,-5.009177 120.71777,0.457519 z"
   fill="#f1f1f1"
   id="path111" />
<path
   d="m 397.15327,369.6433 c 19.16546,16.65799 27.38503,41.3044 30.125,65.875 0.28433,5.02471 0.33417,10.03051 0.3125,15.0625 -0.002,0.67426 -0.004,1.34852 -0.006,2.04321 -0.12582,27.76784 -5.96564,54.92938 -25.307,75.89429 -0.84305,0.96293 -0.84305,0.96293 -1.70313,1.94531 -12.1717,13.17617 -31.03271,20.78234 -48.8125,21.48828 -2.24466,0.0237 -4.48967,0.0245 -6.73437,0.004 -1.18441,-0.009 -2.36881,-0.018 -3.58911,-0.0273 -19.73405,-0.38856 -37.54312,-6.6357 -51.61402,-20.75782 -0.84046,-0.87527 -1.68093,-1.75054 -2.54687,-2.65234 -0.67547,-0.67934 -1.35094,-1.35867 -2.04688,-2.05859 -20.28495,-21.58642 -23.95286,-54.2158 -23.27343,-82.42188 0.33613,-8.37066 1.36388,-16.37909 3.32031,-24.51953 0.16097,-0.70093 0.32194,-1.40186 0.48779,-2.12403 4.74105,-20.04813 15.44757,-40.47085 33.16016,-51.94336 30.13282,-18.50664 70.12598,-18.85947 98.22705,4.19226 z"
   fill="#45474a"
   id="path113" />
<path
   d="m 552.27827,6.5182974 c 1.07975,0.139219 2.1595,0.278438 3.27197,0.421875 52.28184,6.7916876 104.68127,21.8606316 151.47168,46.4028316 2.70714,1.410098 5.42899,2.789988 8.15088,4.171388 12.71533,6.48607 25.1116,13.25988 37.10547,21.00391 0.6405,0.41314 1.28101,0.82628 1.94092,1.25195 4.39649,2.85337 8.73756,5.78264 13.05908,8.74805 0.67386,0.45987 1.34771,0.91974 2.04199,1.39355 10.12917,6.93592 19.77041,14.309178 29.20655,22.159178 2.41253,1.99353 4.86737,3.93328 7.31396,5.88477 6.43159,5.26833 12.42685,10.99494 18.46289,16.70557 1.99497,1.87608 4.00535,3.73409 6.02148,5.5874 11.62518,10.70335 11.62518,10.70335 16.49219,16.55859 1.52462,1.78552 3.14584,3.39452 4.83594,5.02344 3.78669,3.71892 7.05164,7.80575 10.375,11.9375 1.99997,2.44441 4.06019,4.79183 6.1875,7.125 21.41665,23.90893 38.52542,52.32609 53.84814,80.40479 0.78031,1.42663 1.5648,2.851 2.3545,4.27246 11.32598,20.38677 20.06001,42.00073 27.85986,63.94775 0.47131,1.32113 0.47131,1.32113 0.95215,2.66895 11.23813,31.7954 18.68241,64.91619 23.04785,98.33105 0.22647,1.6247 0.22647,1.6247 0.45752,3.28223 5.31837,39.36853 5.00918,81.38466 -0.45752,120.71777 -0.13922,1.07975 -0.27844,2.1595 -0.42188,3.27197 -6.79168,52.28184 -21.86063,104.68127 -46.40283,151.47168 -1.4101,2.70714 -2.78999,5.42899 -4.17138,8.15088 -6.48607,12.71533 -13.25988,25.1116 -21.00391,37.10547 -0.41314,0.6405 -0.82629,1.28101 -1.25195,1.94092 -2.85337,4.39649 -5.78265,8.73756 -8.74805,13.05908 -0.45987,0.67386 -0.91975,1.34771 -1.39355,2.04199 -6.93592,10.12917 -14.30918,19.77041 -22.15918,29.20655 -1.99353,2.41253 -3.93328,4.86737 -5.88477,7.31396 -5.26833,6.43159 -10.99494,12.42685 -16.70557,18.46289 -1.87608,1.99497 -3.73409,4.00535 -5.5874,6.02148 -10.70335,11.62518 -10.70335,11.62518 -16.55859,16.49219 -1.78552,1.52462 -3.39452,3.14584 -5.02344,4.83594 -3.71892,3.78669 -7.80575,7.05164 -11.9375,10.375 -2.44441,1.99997 -4.79183,4.06019 -7.125,6.1875 -23.90893,21.41665 -52.32609,38.52542 -80.40479,53.84814 -1.42663,0.78031 -2.851,1.5648 -4.27246,2.3545 -20.38677,11.32598 -42.00073,20.06001 -63.94775,27.85989 -1.32113,0.4713 -1.32113,0.4713 -2.66895,0.9521 -31.7954,11.2381 -64.91619,18.6824 -98.33105,23.0479 -1.6247,0.2264 -1.6247,0.2264 -3.28223,0.4575 -39.36853,5.3184 -81.38466,5.0092 -120.71777,-0.4575 -1.07975,-0.1393 -2.1595,-0.2785 -3.27197,-0.4219 -52.28184,-6.7917 -104.68127,-21.8606 -151.47168,-46.40284 -2.70714,-1.4101 -5.42899,-2.78999 -8.15088,-4.17138 -12.71533,-6.48607 -25.1116,-13.25988 -37.10547,-21.00391 -0.6405,-0.41314 -1.28101,-0.82629 -1.94092,-1.25195 -4.39649,-2.85337 -8.73756,-5.78265 -13.05908,-8.74805 -0.67386,-0.45987 -1.34771,-0.91975 -2.04199,-1.39355 -10.12917,-6.93592 -19.77041,-14.30918 -29.20655,-22.15918 -2.41253,-1.99353 -4.86737,-3.93328 -7.31396,-5.88477 -6.43159,-5.26833 -12.42685,-10.99494 -18.46289,-16.70557 -1.99497,-1.87608 -4.00535,-3.73409 -6.02148,-5.5874 -11.62518,-10.70335 -11.62518,-10.70335 -16.49219,-16.55859 -1.52462,-1.78552 -3.14584,-3.39452 -4.83594,-5.02344 -3.78669,-3.71892 -7.05164,-7.80575 -10.375,-11.9375 -1.99997,-2.44441 -4.06019,-4.79183 -6.1875,-7.125 -21.416652,-23.90893 -38.525422,-52.32609 -53.848142,-80.40479 -0.78031,-1.42663 -1.5648,-2.851 -2.3545,-4.27246 -11.32598,-20.38677 -20.06001,-42.00073 -27.85986,-63.94775 -0.47131,-1.32113 -0.47131,-1.32113 -0.95215,-2.66895 -11.23813,-31.7954 -18.6824095,-64.91619 -23.0478495,-98.33105 -0.22647,-1.6247 -0.22647,-1.6247 -0.45752,-3.28223 -5.31837,-39.36853 -5.00918,-81.38466 0.45752,-120.71777 0.13922,-1.07975 0.27844,-2.1595 0.42188,-3.27197 6.7916795,-52.28184 21.8606295,-104.68127 46.4028295,-151.47168 1.4101,-2.70714 2.78999,-5.42899 4.17138,-8.15088 6.48607,-12.71533 13.25988,-25.1116 21.00391,-37.10547 0.41314,-0.6405 0.82629,-1.28101 1.25195,-1.94092 2.85337,-4.39649 5.78265,-8.73756 8.74805,-13.05908 0.68981,-1.01079 0.68981,-1.01079 1.39355,-2.04199 6.93592,-10.12917 14.309182,-19.77041 22.159182,-29.20655 1.99353,-2.41253 3.93328,-4.86737 5.88477,-7.31396 5.26833,-6.43159 10.99494,-12.42685 16.70557,-18.46289 1.87608,-1.99497 3.73409,-4.00535 5.5874,-6.02149 10.70335,-11.62517 10.70335,-11.62517 16.55859,-16.49218 1.78552,-1.52462 3.39452,-3.14584 5.02344,-4.83594 3.71892,-3.78669 7.80575,-7.05164 11.9375,-10.375 2.44441,-1.99997 4.79183,-4.06019 7.125,-6.1875 23.90893,-21.416658 52.32609,-38.525428 80.40479,-53.848148 1.42663,-0.7803 2.851,-1.56479 4.27246,-2.35449 20.38677,-11.325989 42.00073,-20.060012 63.94775,-27.859865 1.32113,-0.471313 1.32113,-0.471313 2.66895,-0.952148 31.7954,-11.238135 64.91619,-18.682408 98.33105,-23.0478516 1.08313,-0.150981 2.16627,-0.301962 3.28223,-0.457519 39.36853,-5.31836594 81.38465,-5.009177 120.71777,0.457519 z m -128.0625,8.1718746 c -3.53379,0.611949 -7.06926,1.126139 -10.625,1.59375 -74.69511,10.072053 -151.36623,42.54221 -210.58643,88.889158 -1.69755,1.32299 -3.4096,2.62423 -5.12841,3.91944 -10.43794,7.88647 -20.38738,16.31187 -30.05762,25.12085 -1.60157,1.45332 -3.20947,2.89972 -4.82617,4.33618 -6.28849,5.59209 -12.32438,11.39614 -18.27637,17.34375 -1.32161,1.30324 -1.32161,1.30324 -2.66992,2.63281 -5.25945,5.2478 -10.11166,10.66426 -14.73242,16.4834 -2.07038,2.55221 -4.24107,4.97208 -6.47266,7.38379 -17.42608,19.2018 -32.275622,41.6643 -45.333502,64.02734 -0.84877,1.44868 -1.70366,2.89379 -2.56347,4.33594 -23.20041,38.92827 -40.52923,81.67403 -51.16846,125.73633 -0.47537,1.93697 -0.98925,3.86437 -1.50488,5.79101 -3.55429,13.82535 -5.34792,27.99906 -7.36963,42.11255 -0.48231,3.30704 -1.05216,6.59501 -1.62525,9.88745 -0.98924,5.91225 -1.6349695,11.80288 -2.1027795,17.77735 -0.0839,1.06977 -0.16777,2.13955 -0.25419,3.24174 -0.90427,12.50412 -0.99152,24.99627 -0.95284,37.52779 10e-4,1.20395 0.003,2.40791 0.005,3.64835 0.0366,16.46886 0.37213,32.63647 2.8416695,48.94345 0.51325,3.40733 0.96675,6.81993 1.41553,10.23632 3.72549,27.86216 9.11001,55.18203 18.05078,81.85938 0.35191,1.0675 0.70383,2.13501 1.06641,3.23486 19.31827,58.47197 48.33775,112.51369 87.933112,159.76514 0.74782,0.89646 0.74782,0.89646 1.51074,1.81104 10.54701,12.60843 21.76984,24.54116 33.36426,36.18896 1.03387,1.04088 1.03387,1.04088 2.08862,2.10278 4.51611,4.50197 9.19629,8.74751 14.03638,12.89722 1.1176,0.97349 2.23481,1.94742 3.35156,2.92187 21.94455,19.01087 45.46709,36.20265 70.55078,50.84913 1.44868,0.84877 2.89379,1.70366 4.33594,2.56347 38.9263,23.19924 81.66874,40.52516 125.72754,51.16846 1.96225,0.4795 3.91644,0.9916 5.87012,1.5049 31.83522,8.2027 65.39858,11.4279 98.16406,11.9922 1.05058,0.022 2.10117,0.044 3.18359,0.066 91.87288,1.7378 183.06323,-22.75518 316.81641,-111.06643 0.59764,-0.49854 1.19528,-0.99709 1.81104,-1.51074 12.60843,-10.54701 24.54116,-21.76984 36.18896,-33.36426 1.04088,-1.03387 1.04088,-1.03387 2.10278,-2.08862 4.50197,-4.51611 8.74751,-9.19629 12.89722,-14.03638 0.97349,-1.1176 1.94742,-2.23481 2.92187,-3.35156 23.65977,-27.31083 43.71951,-56.99407 61.07813,-88.64844 0.42007,-0.75958 0.84015,-1.51916 1.27295,-2.30176 12.16464,-22.11015 21.57712,-45.32893 29.83105,-69.14697 0.74268,-2.11471 1.51144,-4.21271 2.31397,-6.30518 10.071,-26.56266 15.11468,-55.08694 19.12695,-83.10376 0.31185,-2.15335 0.63674,-4.30485 0.97266,-6.45459 1.37055,-8.97803 2.12243,-17.93821 2.60742,-27.00024 0.0417,-0.75963 0.0834,-1.51926 0.12634,-2.30191 1.73694,-32.45528 2.16013,-65.33631 -3.42322,-97.44809 -0.61194,-3.53379 -1.12613,-7.06926 -1.59375,-10.625 -9.46918,-70.27929 -38.73193,-139.40792 -79.23437,-197.3125 -0.51627,-0.74008 -1.03254,-1.48017 -1.56445,-2.24268 -7.69111,-10.96894 -15.83244,-21.49072 -24.43555,-31.75732 -0.49854,-0.59764 -0.99709,-1.19528 -1.51074,-1.81104 -10.54701,-12.60843 -21.76984,-24.54116 -33.36426,-36.18896 -0.68925,-0.69392 -1.37849,-1.38784 -2.08862,-2.10278 -4.51611,-4.50197 -9.19629,-8.74751 -14.03638,-12.89722 -1.1176,-0.97349 -2.23481,-1.94742 -3.35156,-2.92187 -45.34926,-39.286708 -97.42206,-69.827148 -153.89502,-90.08741 -2.59977,-0.935437 -5.19068,-1.892149 -7.78077,-2.854004 -28.3827,-10.404619 -57.97284,-16.405767 -87.83032,-20.68164 -2.15335,-0.311853 -4.30485,-0.636736 -6.45459,-0.972657 -8.97803,-1.370556 -17.93821,-2.122435 -27.00024,-2.607422 -0.75963,-0.04169 -1.51926,-0.08339 -2.30191,-0.126342 -32.45528,-1.7369336 -65.33631,-2.1601246 -97.44809,3.423217 z"
   fill="#0378cc"
   id="path115" />
<path
   d="m 462.27827,355.5183 c 16.83,0 33.66,0 51,0 4.66414,9.32829 9.31238,18.62876 13.73096,28.0708 0.3189,0.68096 0.6378,1.36193 0.96637,2.06353 0.32675,0.69817 0.65351,1.39634 0.99017,2.11567 0.69899,1.49075 1.39805,2.98147 2.09717,4.47216 1.40804,3.00371 2.81448,6.00817 4.21972,9.01319 1.25355,2.68028 2.50931,5.35949 3.76856,8.03711 39.22705,83.43678 39.22705,83.43678 39.22705,97.22754 0.99,0 1.98,0 3,0 -0.0899,-1.80186 -0.0899,-1.80186 -0.18161,-3.64012 -1.56922,-32.01975 -2.08452,-63.95294 -1.95572,-96.00777 0.0211,-5.82895 0.0297,-11.65791 0.0397,-17.48688 0.021,-11.28847 0.0559,-22.57682 0.0976,-33.86523 10.23,0 20.46,0 31,0 0,63.36 0,126.72 0,192 -13.53,0 -27.06,0 -41,0 -9.19757,-18.39514 -9.19757,-18.39514 -12.375,-25.11719 -0.3668,-0.77242 -0.73359,-1.54484 -1.1115,-2.34067 -1.17299,-2.47152 -2.34345,-4.94422 -3.5135,-7.41714 -0.835,-1.76272 -1.67004,-3.52541 -2.50513,-5.28809 -1.69165,-3.57172 -3.38197,-7.14408 -5.07153,-10.71679 -1.87473,-3.9632 -3.75509,-7.92367 -5.63832,-11.88283 -9.30406,-19.56786 -18.24507,-39.2788 -26.9691,-59.11181 -1.70185,-3.86886 -3.41231,-7.73385 -5.12452,-11.59814 -0.9807,-2.21734 -1.96119,-4.43478 -2.9414,-6.65234 -0.42966,-0.9701 -0.85932,-1.9402 -1.302,-2.9397 -2.32952,-5.28934 -4.49495,-10.59087 -6.44702,-16.03247 -0.9064,-2.25596 -0.9064,-2.25596 -4.00098,-2.90283 0.0298,0.74108 0.0596,1.48217 0.0902,2.24572 0.75347,19.22358 1.05096,38.41346 1.01115,57.65266 -0.006,3.64737 -0.007,7.29473 -0.008,10.9421 -0.003,6.852 -0.0112,13.70399 -0.0213,20.55598 -0.0113,7.824 -0.0167,15.648 -0.0217,23.47201 -0.0104,16.04386 -0.0287,32.08769 -0.0503,48.13153 -10.23,0 -20.46,0 -31,0 0,-63.69 0,-127.38 0,-193 z"
   fill="#45474a"
   id="path117" />
<path
   d="m 215.71577,367.8933 c 8.84039,8.59482 17.72003,20.05843 19.5625,32.625 -7.36118,2.13236 -14.73172,4.23157 -22.125,6.25 -1.21945,0.33515 -2.43891,0.67031 -3.69531,1.01562 -3.17969,0.73438 -3.17969,0.73438 -7.17969,0.73438 -0.29133,-0.84563 -0.58266,-1.69125 -0.88281,-2.5625 -2.30442,-6.377 -4.56967,-11.7607 -8.98047,-16.94922 -1.13672,-1.48828 -1.13672,-1.48828 -1.13672,-3.48828 -0.86625,-0.4312 -0.86625,-0.4312 -1.75,-0.8711 -1.42093,-0.71293 -2.83815,-1.43332 -4.25,-2.16406 -0.99,-0.50854 -0.99,-0.50854 -2,-1.02734 -0.99,-0.51241 -0.99,-0.51241 -2,-1.03516 -8.38347,-3.78239 -20.26807,-2.96385 -28.78516,0.0547 -6.32665,2.97922 -10.8296,6.94953 -14.21484,13.04297 -2.52713,7.58138 -1.76482,15.89053 1.73437,23 9.10209,14.38354 29.7179,17.58111 45.03907,22.11719 17.21745,5.14398 37.3242,11.8372 47.10156,28.13281 0.75312,1.56253 1.45948,3.1482 2.125,4.75 0.39058,0.90879 0.78117,1.81758 1.18359,2.75391 5.16151,13.9843 4.43479,30.14845 -1.25,43.80859 -7.06293,15.29137 -18.60652,23.82371 -34.02514,29.58667 -9.77648,3.41298 -19.0923,4.14734 -29.40845,4.03833 -1.7383,-9.7e-4 -1.7383,-9.7e-4 -3.51172,-0.002 -21.50351,-0.10929 -39.09082,-4.88633 -55.23828,-19.8105 -7.10211,-7.4109 -15.750002,-19.79671 -15.750002,-30.375 4.234562,-1.42798 8.470422,-2.85204 12.707522,-4.27246 1.44177,-0.48395 2.88318,-0.96897 4.32422,-1.45508 2.06921,-0.69781 4.13968,-1.39176 6.21045,-2.08496 1.24636,-0.41895 2.49272,-0.83789 3.77685,-1.26953 2.98096,-0.91797 2.98096,-0.91797 4.98096,-0.91797 0.29133,0.83402 0.58265,1.66805 0.88281,2.52734 4.19145,11.50671 9.32204,21.7056 20.48828,27.75782 12.44785,5.7027 25.69176,4.86952 38.57813,0.98046 5.54394,-2.29992 9.71189,-5.25729 13.05078,-10.26562 1.87089,-4.61041 2.27016,-8.54032 2.25,-13.5 0.005,-1.26844 0.0103,-2.53688 0.0156,-3.84375 -0.45151,-6.21481 -2.42201,-10.77382 -6.26563,-15.65625 -5.21775,-4.17957 -10.37487,-6.64156 -16.625,-8.9375 -0.9137,-0.34354 -1.8274,-0.68707 -2.7688,-1.04102 -6.35417,-2.33652 -12.76056,-4.2581 -19.2937,-6.02148 -13.82929,-3.76167 -27.05238,-8.94436 -38.3125,-18 -0.96099,-0.7019 -0.96099,-0.7019 -1.9414,-1.41797 -8.90042,-6.86274 -13.43153,-17.66648 -15.0586,-28.58203 -1.47121,-15.34039 -0.0221,-29.08738 9.82422,-41.50782 10.6298,-12.17561 25.31539,-19.93884 41.50293,-21.31787 22.11552,-1.44231 43.59088,0.0594 61.11035,15.20069 z"
   fill="#45474a"
   id="path119" />
<path
   d="m 849.21577,367.7683 c 11.15252,9.78144 19.46082,23.3433 23.0625,37.75 0.125,2.9375 0.125,2.9375 0,5 -6.35311,2.57293 -12.6866,4.22136 -19.375,5.6875 -1.49467,0.33741 -1.49467,0.33741 -3.01953,0.68164 -7.30665,1.63086 -7.30665,1.63086 -9.60547,1.63086 -0.21914,-0.87141 -0.43828,-1.74282 -0.66406,-2.64063 -3.74942,-14.08318 -8.71178,-26.69916 -21.89844,-34.35937 -9.48,-3.89025 -23.57769,-4.22432 -33.3125,-0.89063 -2.96877,1.40865 -5.49007,2.93399 -8.125,4.89063 -1.10988,0.7773 -1.10988,0.7773 -2.24219,1.57031 -13.07136,10.21046 -18.11398,27.38722 -20.48022,43.12478 -0.77552,6.43935 -0.71775,12.92915 -0.6687,19.40549 0.0162,2.52952 10e-6,5.05745 -0.019,7.58692 -0.013,9.84796 0.78671,18.76803 3.41015,28.3125 0.29802,1.09635 0.29802,1.09635 0.60205,2.21484 3.94774,13.40013 10.78362,25.18959 23.08936,32.35157 10.86416,5.55068 22.52648,6.12997 34.30859,2.87109 10.63664,-3.81964 16.95398,-10.4243 22,-20.4375 1.5588,-3.94571 2.81222,-7.93003 4,-12 0.65967,-2.00232 1.32449,-4.00297 2,-6 10.41382,2.72288 20.69999,5.88048 31,9 -0.50858,5.85524 -1.69994,10.537 -4.125,15.875 -0.31058,0.69472 -0.62117,1.38945 -0.94116,2.10522 -2.68934,5.83335 -5.93109,10.98828 -9.93384,16.01978 -0.46922,0.63164 -0.93844,1.26328 -1.42187,1.91406 -5.76847,7.35642 -14.06103,12.43575 -22.57813,16.08594 -0.80824,0.34934 -1.61648,0.69867 -2.44922,1.05859 -20.13559,8.02485 -45.82897,7.6958 -65.76953,-0.78906 -19.60307,-8.93293 -34.12093,-24.70876 -41.90625,-44.76953 -12.21819,-32.88846 -11.8158,-72.527 2.53125,-104.64844 9.42532,-18.27466 23.60099,-31.95192 42.59375,-39.85156 26.80907,-8.45391 57.31117,-6.08215 79.9375,11.25 z"
   fill="#45474a"
   id="path121" />
<path
   d="m 366.39546,383.59642 c 13.95871,9.3058 20.19567,24.15983 23.55322,40.0747 1.66976,8.58237 1.93657,17.03176 1.85108,25.75391 -0.0215,2.59323 -3e-5,5.1837 0.0254,7.77685 0.0155,8.70186 -0.5697,17.02158 -2.33594,25.55469 -0.15602,0.75426 -0.31204,1.50853 -0.47278,2.28565 -3.21593,14.03443 -10.84526,28.07196 -23.06238,35.99951 -9.99073,5.51313 -23.47235,6.4494 -34.55078,3.78516 -2.23257,-0.92636 -4.11961,-1.96332 -6.125,-3.3086 -1.02094,-0.65355 -1.02094,-0.65355 -2.0625,-1.32031 -14.55024,-10.08596 -20.78263,-26.08881 -24.01953,-42.97266 -1.29982,-8.14816 -1.35871,-16.28671 -1.35547,-24.51953 -7.3e-4,-0.81365 -0.002,-1.6273 -0.002,-2.46561 0.0529,-22.34141 2.84636,-44.81853 19.0452,-61.59689 14.02061,-12.44246 33.40118,-14.13087 49.51169,-5.04687 z"
   fill="#f1f1f1"
   id="path123" />
<path
   d="m 652.27827,411.5183 c 10.56,0 21.12,0 32,0 0,45.21 0,90.42 0,137 -10.56,0 -21.12,0 -32,0 0,-45.21 0,-90.42 0,-137 z"
   fill="#484a4c"
   id="path125" />
<path
   d="m 401.84077,616.5183 c 5.65168,3.35479 9.83967,7.94328 12.875,13.75 0.5625,2.25 0.5625,2.25 0.5625,6.25 -4.26616,1.13764 -7.56486,2 -12,2 -0.30293,-0.68707 -0.60586,-1.37415 -0.91797,-2.08204 -2.51331,-5.47375 -2.51331,-5.47375 -6.33203,-10.04296 -5.23392,-1.66534 -9.87698,-1.51112 -15.0625,0.25 -5.27377,3.67937 -7.47667,8.71274 -8.6875,14.875 -0.93553,9.96872 -1.95602,22.42026 4,31 3.64869,3.56181 6.26263,5.14506 11.3125,5.1875 3.67765,-0.0648 6.50216,-0.18529 9.6875,-2.1875 3.98662,-4.67005 4.92893,-9.10914 6,-15 -5.28,-0.33 -10.56,-0.66 -16,-1 0,-3.3 0,-6.6 0,-10 9.57,0 19.14,0 29,0 0,12.54 0,25.08 0,38 -2.97,0 -5.94,0 -9,0 -0.66,-2.31 -1.32,-4.62 -2,-7 -0.92813,0.99 -0.92813,0.99 -1.875,2 -2.125,2 -2.125,2 -4.125,2 0,0.66 0,1.32 0,2 -6.97159,3.29542 -16.1266,3.29763 -23.4375,0.875 -8.70478,-3.999 -14.05013,-11.34116 -17.375,-20.125 -2.84304,-10.4624 -3.3165,-25.98309 1.8125,-35.75 8.93503,-14.39533 25.19457,-22.47889 41.5625,-15 z"
   fill="#087bcd"
   id="path127" />
<path
   d="m 786.65327,638.1433 c 6.8959,6.23914 9.93734,11.77162 10.91015,21.11328 0.25027,7.69281 -0.80446,15.48026 -5.66015,21.69922 -5.40606,5.27733 -10.0805,6.91552 -17.58985,6.85937 -3.674,-0.53594 -6.45572,-2.71744 -9.03515,-5.29687 -0.33,7.26 -0.66,14.52 -1,22 -3.96,0 -7.92,0 -12,0 0,-22.11 0,-44.22 0,-67 3.63,0 7.26,0 11,0 0.33,1.65 0.66,3.3 1,5 0.76312,-0.80438 1.52625,-1.60875 2.3125,-2.4375 5.33031,-5.08239 13.60721,-5.0456 20.0625,-1.9375 z"
   fill="#067acd"
   id="path129" />
<path
   d="m 611.65327,638.1433 c 6.8959,6.23914 9.93734,11.77162 10.91015,21.11328 0.25027,7.69281 -0.80446,15.48026 -5.66015,21.69922 -5.40606,5.27733 -10.0805,6.91552 -17.58985,6.85937 -3.674,-0.53594 -6.45572,-2.71744 -9.03515,-5.29687 -0.33,7.26 -0.66,14.52 -1,22 -3.96,0 -7.92,0 -12,0 0,-22.11 0,-44.22 0,-67 3.63,0 7.26,0 11,0 0.33,1.65 0.66,3.3 1,5 0.76312,-0.80438 1.52625,-1.60875 2.3125,-2.4375 5.33031,-5.08239 13.60721,-5.0456 20.0625,-1.9375 z"
   fill="#067acd"
   id="path131" />
<path
   d="m 496.71577,638.0808 c 5.76912,3.46877 10.00012,8.66479 12.09375,15.07031 1.53731,7.76341 1.58801,16.40548 -2.53125,23.36719 -1.81495,2.5264 -3.67304,4.92582 -6,7 -0.66,0 -1.32,0 -2,0 0,0.66 0,1.32 0,2 -7.59877,2.29396 -15.77458,3.7573 -23.3125,0.5 -5.7992,-3.34615 -9.72455,-9.18288 -11.6875,-15.5 -1.45202,-16.96838 -1.45202,-16.96838 2.52344,-23.28907 8.12862,-9.41888 18.52044,-14.7688 30.91406,-9.14843 z"
   fill="#077acd"
   id="path133" />
<path
   d="m 76.278268,615.5183 c 4.29,0 8.58,0 13,0 0.01458,1.43722 0.02917,2.87444 0.04419,4.35522 0.05823,5.36206 0.13546,10.72372 0.218262,16.08545 0.03313,2.31504 0.0612,4.63015 0.08399,6.94531 0.03376,3.33913 0.08608,6.67754 0.141845,10.01636 0.0064,1.02536 0.01278,2.05073 0.01936,3.10716 0.138448,6.85699 0.487141,14.39137 5.492353,19.553 6.382682,1.99458 12.940882,1.79991 19.000002,-1.0625 2.43984,-2.00416 2.97124,-2.91372 4,-6 0.11554,-1.73278 0.17645,-3.46944 0.20532,-5.20582 0.0199,-1.06087 0.0399,-2.12174 0.0604,-3.21476 0.0167,-1.14383 0.0334,-2.28766 0.0506,-3.46614 0.0208,-1.17215 0.0416,-2.34429 0.063,-3.55196 0.0655,-3.74955 0.12436,-7.49917 0.18312,-11.24882 0.0432,-2.53973 0.0868,-5.07944 0.13086,-7.61915 0.10716,-6.23104 0.20844,-12.46216 0.30665,-18.69335 3.96,0 7.92,0 12,0 0.0992,7.38318 0.17164,14.76596 0.21973,22.14965 0.02,2.50919 0.0473,5.01832 0.082,7.52735 0.0488,3.61689 0.0713,7.23317 0.0889,10.85034 0.0206,1.11286 0.0413,2.22572 0.0626,3.3723 0.002,8.27235 -1.42386,14.51298 -6.82819,20.91286 -9.04709,7.53924 -17.22522,8.18437 -28.625002,7.1875 -6.685673,-1.35439 -11.03974,-4.36414 -15.527343,-9.41407 -4.409435,-7.74282 -4.895295,-15.77314 -4.765625,-24.5 0.0042,-1.09565 0.0085,-2.1913 0.01286,-3.32016 0.01665,-3.46385 0.05428,-6.9271 0.09261,-10.39077 0.01506,-2.36328 0.02875,-4.72656 0.04102,-7.08985 0.03289,-5.76195 0.08458,-11.52345 0.146484,-17.28515 z"
   fill="#077acd"
   id="path135" />
<path
   d="m 827.27827,636.1433 c 1.02867,-0.0174 1.02867,-0.0174 2.07812,-0.0352 5.43291,0.0311 9.5528,1.19864 13.56641,4.94531 4.08872,5.34679 4.54058,8.57051 4.67187,15.19141 0.0208,0.86281 0.0416,1.72563 0.063,2.61459 0.0655,2.7612 0.12438,5.5225 0.18313,8.28385 0.0432,1.8698 0.0868,3.73959 0.13085,5.60937 0.10719,4.58844 0.20846,9.17698 0.30665,13.76563 -3.96,0 -7.92,0 -12,0 -0.33,-1.32 -0.66,-2.64 -1,-4 -1.485,0.495 -1.485,0.495 -3,1 0,0.66 0,1.32 0,2 -5.87154,2.73349 -11.63562,2.65645 -18,2 -4.10208,-1.49869 -6.64785,-4.39684 -9,-8 -1.31308,-4.69407 -1.76453,-9.38064 0.5,-13.8125 3.97742,-5.75572 9.21417,-8.66178 16.01172,-9.91797 4.49518,-0.48692 8.97485,-0.42139 13.48828,-0.26953 -0.66,-2.97 -1.32,-5.94 -2,-9 -6.75388,-1.30803 -6.75388,-1.30803 -13,1 -1.36078,2.52372 -1.36078,2.52372 -2,5 -8.57143,-1 -8.57143,-1 -12,-2 0.59684,-3.19485 1.58417,-5.09482 3.6875,-7.5625 0.47824,-0.57879 0.95648,-1.15758 1.44922,-1.75391 4.80258,-4.33945 9.57996,-5.16489 15.86328,-5.05859 z"
   fill="#097ccd"
   id="path137" />
<path
   d="m 718.27827,636.0808 c 0.70479,0.007 1.40959,0.0137 2.13574,0.0208 6.88707,0.21392 10.07434,1.73185 14.99805,6.47021 2.62103,4.1383 2.4688,7.59627 2.47558,12.40357 0.0165,0.90296 0.0331,1.80592 0.0501,2.73625 0.0484,2.87314 0.0698,5.74575 0.0905,8.61922 0.0282,1.9525 0.0581,3.90497 0.0898,5.85742 0.0738,4.77665 0.12344,9.553 0.16016,14.33008 -3.63,0 -7.26,0 -11,0 0,-1.65 0,-3.3 0,-5 -0.4705,0.34933 -0.94101,0.69867 -1.42577,1.05859 -0.62262,0.45504 -1.24524,0.91008 -1.88672,1.37891 -0.61488,0.45246 -1.22977,0.90492 -1.86328,1.37109 -5.19756,3.39455 -11.88776,2.96293 -17.82422,2.19141 -4.13709,-2.18251 -6.43943,-5.15915 -9,-9 -0.58047,-4.44773 -0.54701,-8.63248 1.125,-12.8125 5.50239,-6.41946 10.54202,-8.80598 18.875,-10.1875 3.68504,-0.2098 7.31505,-0.19245 11,0 -0.386,-4.66574 -0.386,-4.66574 -2.125,-8.9375 -4.20109,-2.38062 -9.37984,-1.15224 -13.875,-0.0625 -0.66,1.98 -1.32,3.96 -2,6 -7.625,-0.875 -7.625,-0.875 -11,-2 0.35271,-3.9974 1.79782,-6.43171 4.25781,-9.57032 5.01185,-4.11286 10.42551,-4.96123 16.74219,-4.86718 z"
   fill="#067acd"
   id="path139" />
<path
   d="m 225.71577,638.0808 c 5.89488,3.51449 9.05113,8.15908 11.5625,14.4375 0,3.96 0,7.92 0,12 -10.89,0 -21.78,0 -33,0 1.25207,8.18331 1.25207,8.18331 6,13 3.21929,1.60964 6.51888,1.60686 10,1 3.21954,-2.53454 4.70432,-4.11298 6,-8 3.3,0.66 6.6,1.32 10,2 1,4 1,4 0.0664,5.78125 -4.79682,5.48208 -8.99469,8.75244 -16.375,9.59765 -7.17743,0.23951 -13.75371,-0.002 -19.69141,-4.3789 -6.87985,-7.1176 -8.42571,-13.94207 -8.35913,-23.6189 0.18435,-7.1772 1.44368,-11.4025 6.5232,-16.59204 7.62042,-7.07434 17.22216,-9.7847 27.27343,-5.22656 z"
   fill="#077acd"
   id="path141" />
<path
   d="m 895.27827,636.5183 c 4.34536,2.38493 7.04353,5.47616 9,10 0.24051,1.99957 0.24051,1.99957 0.22705,4.12597 -1.5e-4,0.80053 -3e-4,1.60106 -4.6e-4,2.42584 -0.0103,0.85431 -0.0206,1.70862 -0.0313,2.58881 -0.003,0.88218 -0.006,1.76436 -0.009,2.67328 -0.0112,2.81217 -0.0363,5.62402 -0.0617,8.4361 -0.01,1.90885 -0.0192,3.8177 -0.0274,5.72656 -0.022,4.6746 -0.0565,9.34896 -0.0976,14.02344 -3.96,0 -7.92,0 -12,0 -0.0251,-1.07484 -0.0501,-2.14968 -0.0759,-3.25708 -0.0942,-3.98645 -0.19435,-7.97273 -0.29639,-11.95899 -0.0433,-1.72554 -0.085,-3.45113 -0.125,-5.17676 -0.0578,-2.47986 -0.12144,-4.95952 -0.18628,-7.43921 -0.0167,-0.77197 -0.0334,-1.54394 -0.0506,-2.33931 -0.088,-3.18048 -0.25321,-5.79101 -1.26576,-8.82865 -5.63182,-0.61577 -5.63182,-0.61577 -10.89844,1.04296 -2.14086,1.78057 -3.84913,3.45218 -5.10156,5.95704 -0.15608,2.4056 -0.25805,4.78702 -0.31641,7.19531 -0.0208,0.70744 -0.0416,1.41489 -0.063,2.14377 -0.0654,2.26187 -0.12435,4.52386 -0.18312,6.78592 -0.0432,1.53256 -0.0868,3.06511 -0.13086,4.59765 -0.10713,3.759 -0.20841,7.51811 -0.30664,11.27735 -3.96,0 -7.92,0 -12,0 0,-16.17 0,-32.34 0,-49 3.96,0 7.92,0 12,0 0.33,2.31 0.66,4.62 1,7 1.08281,-1.14469 1.08281,-1.14469 2.1875,-2.3125 5.83193,-5.57274 10.76413,-7.12677 18.8125,-5.6875 z"
   fill="#067acd"
   id="path143" />
<path
   d="m 520.27827,637.5183 c 3.96,0 7.92,0 12,0 0.0198,1.11036 0.0396,2.22073 0.0601,3.36474 0.0759,4.1114 0.16468,8.22244 0.25732,12.3335 0.0383,1.78085 0.0732,3.56178 0.10449,5.34277 0.0456,2.55693 0.10357,5.11331 0.16407,7.66992 0.0116,0.79901 0.0231,1.59802 0.035,2.42124 -0.0484,4.4024 -0.0484,4.4024 2.37906,7.86783 2.04522,0.21265 2.04522,0.21265 4.3125,-0.0625 0.75925,-0.0529 1.51851,-0.10571 2.30078,-0.16016 3.52103,-1.14679 5.05421,-2.92079 7.38672,-5.77734 0.50763,-2.76893 0.72264,-4.94401 0.70703,-7.70704 0.0151,-0.72539 0.0302,-1.45079 0.0458,-2.19816 0.0428,-2.30275 0.0517,-4.60419 0.0597,-6.9073 0.0231,-1.5671 0.0485,-3.13416 0.0762,-4.70118 0.0628,-3.82889 0.0952,-7.65696 0.11133,-11.48632 3.96,0 7.92,0 12,0 0,16.17 0,32.34 0,49 -3.63,0 -7.26,0 -11,0 -0.33,-1.98 -0.66,-3.96 -1,-6 -0.9075,0.78375 -1.815,1.5675 -2.75,2.375 -4.51872,3.90253 -8.01188,5.01366 -13.92969,4.88671 -4.45597,-0.50261 -8.11645,-2.05785 -11.32031,-5.26171 0,-0.99 0,-1.98 0,-3 -0.66,0 -1.32,0 -2,0 0,-13.86 0,-27.72 0,-42 z"
   fill="#0479cc"
   id="path145" />
<path
   d="m 176.27827,638.5183 c 2.68513,2.41871 5.13048,4.89438 7,8 -0.33,0.99 -0.66,1.98 -1,3 -3.87862,1.39044 -6.86462,2 -11,2 -0.33,-1.65 -0.66,-3.3 -1,-5 -1.58129,-0.22332 -3.16521,-0.42805 -4.75,-0.625 -0.88172,-0.11602 -1.76344,-0.23204 -2.67188,-0.35157 -2.80672,-0.0255 -4.21197,0.52813 -6.57812,1.97657 0,1.98 0,3.96 0,6 1.62808,0.38091 1.62808,0.38091 3.28906,0.76953 1.44541,0.34727 2.89071,0.69495 4.33594,1.04297 0.71285,0.16564 1.4257,0.33128 2.16015,0.50195 6.94648,1.68882 12.50335,3.98686 17.07813,9.6543 2.02497,3.6185 1.88954,7.03376 1.13672,11.03125 -2.04486,4.84307 -5.50914,7.75008 -10.17188,10.08984 -6.2714,2.01828 -14.90948,2.02075 -21.2539,0.22266 -4.10847,-2.18633 -6.9465,-5.56999 -9.57422,-9.3125 0,-0.99 0,-1.98 0,-3 1.26839,-0.50616 2.53983,-1.0047 3.8125,-1.5 0.70769,-0.27844 1.41539,-0.55688 2.14453,-0.84375 2.04297,-0.65625 2.04297,-0.65625 5.04297,-0.65625 0.22687,0.78375 0.45375,1.5675 0.6875,2.375 1.06881,2.76933 1.06881,2.76933 3.53125,3.8125 3.14593,0.91903 5.3529,0.82796 8.59375,0.4375 0.97582,-0.11086 1.95164,-0.22172 2.95703,-0.33594 1.10408,-0.14309 1.10408,-0.14309 2.23047,-0.28906 -0.33,-2.64 -0.66,-5.28 -1,-8 -0.62906,-0.18176 -1.25813,-0.36352 -1.90625,-0.55079 -17.21049,-5.05428 -17.21049,-5.05428 -23.96875,-11.13671 -1.81352,-3.72779 -1.73881,-7.25575 -1.125,-11.3125 2.12774,-4.69877 4.90299,-7.2359 9.52344,-9.3125 6.92144,-1.92142 15.99169,-1.80024 22.47656,1.3125 z"
   fill="#097bcd"
   id="path147" />
<path
   d="m 301.59077,636.2683 c 1.29551,-0.0258 2.59101,-0.0516 3.92578,-0.0781 4.84916,0.42298 8.05211,1.78033 11.66016,5.04688 0.73089,0.88171 0.73089,0.88171 1.47656,1.78125 0.50273,0.58781 1.00547,1.17562 1.52344,1.78125 1.10156,1.71875 1.10156,1.71875 1.10156,4.71875 -3.87684,1.19287 -6.91622,2 -11,2 -0.4125,-0.80438 -0.825,-1.60875 -1.25,-2.4375 -1.43812,-2.66726 -1.43812,-2.66726 -3.57422,-3.15235 -3.55627,-0.47986 -6.75402,-0.69332 -10.17578,0.58985 0,1.98 0,3.96 0,6 4.45186,2.07063 8.83161,3.54342 13.5625,4.875 6.29954,1.90434 10.24574,3.69441 13.875,9.375 1.06479,5.20566 0.58828,9.90359 -2,14.5625 -6.9765,6.26096 -13.60139,6.96025 -22.64453,6.57031 -6.49953,-0.65598 -10.44301,-2.63999 -14.79297,-7.44531 -2,-2.9375 -2,-2.9375 -2,-5.9375 1.26839,-0.50616 2.53983,-1.0047 3.8125,-1.5 0.70769,-0.27844 1.41539,-0.55688 2.14453,-0.84375 2.04297,-0.65625 2.04297,-0.65625 5.04297,-0.65625 1.35278,1.98689 2.68568,3.98745 4,6 2.80157,0.93385 4.65448,1.16354 7.5625,1.1875 0.78504,0.0142 1.57008,0.0284 2.3789,0.043 2.28295,-0.0388 2.28295,-0.0388 4.0586,-2.23047 0.16681,-3.08348 0.16681,-3.08348 0,-6 -4.10262,-2.18107 -8.02766,-3.69696 -12.5,-4.9375 -6.306,-1.88389 -10.74705,-3.43308 -14.5,-9.0625 -0.73306,-4.10993 -0.79921,-7.89812 0,-12 4.86563,-6.6719 10.33521,-8.15532 18.3125,-8.25 z"
   fill="#087bcd"
   id="path149" />
<path
   d="m 651.27827,355.5183 c 11.22,0 22.44,0 34,0 0,10.56 0,21.12 0,32 -11.22,0 -22.44,0 -34,0 0,-10.56 0,-21.12 0,-32 z"
   fill="#444649"
   id="path151" />
<path
   d="m 670.27827,615.5183 c 3.96,0 7.92,0 12,0 0.0679,7.58898 0.12289,15.17784 0.15544,22.76706 0.0156,3.52437 0.0368,7.04853 0.0709,10.57278 0.039,4.05601 0.0534,8.11179 0.0666,12.16797 0.0155,1.25958 0.031,2.51917 0.0469,3.81692 2.2e-4,1.18077 4.5e-4,2.36155 6.8e-4,3.5781 0.007,1.0348 0.0133,2.06961 0.0202,3.13577 -0.61852,5.07726 -2.57876,8.2134 -6.23576,11.7114 -5.252,3.78144 -8.97089,4.49587 -15.4375,4.375 -1.25426,-0.0181 -2.50852,-0.0361 -3.80078,-0.0547 -0.95262,-0.0232 -1.90524,-0.0464 -2.88672,-0.0703 0,-3.3 0,-6.6 0,-10 2.4414,-0.0977 4.88281,-0.19532 7.32422,-0.29297 2.83426,-0.74891 4.58313,-1.70267 6.61003,-3.83355 2.46311,-4.32992 1.78865,-9.77308 1.77278,-14.61177 0.0151,-1.2359 0.0302,-2.4718 0.0458,-3.74516 0.0357,-3.27334 0.05,-6.54585 0.054,-9.81935 0.009,-3.34524 0.0472,-6.69002 0.0818,-10.0351 0.0629,-6.5541 0.0952,-13.10772 0.11133,-19.6621 z"
   fill="#0278cc"
   id="path153" />
<path
   d="m 456.27827,636.5183 c 0,3.63 0,7.26 0,11 -1.05188,0.20625 -2.10375,0.4125 -3.1875,0.625 -4.48169,1.2545 -6.16694,3.64009 -8.8125,7.375 -1.42268,2.84535 -1.21972,5.36218 -1.31641,8.53906 -0.0419,1.30195 -0.0838,2.6039 -0.12695,3.94531 -0.0398,1.38021 -0.0795,2.76041 -0.11914,4.14063 -0.0432,1.38803 -0.0868,2.77605 -0.13086,4.16406 -0.10636,3.40354 -0.20839,6.80715 -0.30664,10.21094 -3.96,0 -7.92,0 -12,0 0,-16.17 0,-32.34 0,-49 3.63,0 7.26,0 11,0 0,2.97 0,5.94 0,9 0.66,0 1.32,0 2,0 0.0412,-0.55688 0.0825,-1.11375 0.125,-1.6875 1.34125,-3.54473 3.88425,-5.09935 6.875,-7.3125 3,-1 3,-1 6,-1 z"
   fill="#0579cc"
   id="path155" />
<path
   d="m 275.27827,636.5183 c 0,3.63 0,7.26 0,11 -1.05188,0.20625 -2.10375,0.4125 -3.1875,0.625 -4.48169,1.2545 -6.16694,3.64009 -8.8125,7.375 -1.42268,2.84535 -1.21972,5.36218 -1.31641,8.53906 -0.0419,1.30195 -0.0838,2.6039 -0.12695,3.94531 -0.0398,1.38021 -0.0795,2.76041 -0.11914,4.14063 -0.0432,1.38803 -0.0868,2.77605 -0.13086,4.16406 -0.10636,3.40354 -0.20839,6.80715 -0.30664,10.21094 -3.96,0 -7.92,0 -12,0 0,-16.17 0,-32.34 0,-49 3.63,0 7.26,0 11,0 0,2.97 0,5.94 0,9 0.66,0 1.32,0 2,0 0.0412,-0.55688 0.0825,-1.11375 0.125,-1.6875 1.34125,-3.54473 3.88425,-5.09935 6.875,-7.3125 3,-1 3,-1 6,-1 z"
   fill="#0579cc"
   id="path157" />
<path
   d="m 490.27827,645.5183 c 4.19579,3.03525 5.9923,5.96152 7,11 0.71838,7.83586 0.21868,13.29973 -4,20 -2.49041,2.4904 -3.43155,2.32391 -6.875,2.375 -3.31648,-0.0812 -4.77476,-0.1561 -7.625,-1.9375 -4.39626,-7.14392 -4.30555,-15.25739 -3.5,-23.4375 2.64068,-7.73521 7.35051,-9.16463 15,-8 z"
   fill="#eef0f1"
   id="path159" />
<path
   d="m 772.20405,645.46361 c 6.47734,0.48765 6.47734,0.48765 9.57422,3.42968 2.55316,4.46804 2.74417,8.41344 2.8125,13.4375 0.029,0.69932 0.058,1.39864 0.0879,2.11914 0.0626,5.14508 -1.06457,7.96083 -4.40039,12.06836 -2.65864,2.10858 -3.98701,2.00024 -7.4375,1.9375 -4.4448,-1.16968 -5.80898,-2.2553 -8.5625,-5.9375 -0.73355,-3.51604 -0.69887,-6.91994 -0.625,-10.5 -0.0193,-0.93715 -0.0387,-1.87429 -0.0586,-2.83984 0.0337,-4.75645 0.10941,-6.94288 3.16016,-10.75391 0.83273,-0.62906 1.66547,-1.25812 2.52344,-1.90625 1,-1 1,-1 2.92578,-1.05468 z"
   fill="#eff0f1"
   id="path161" />
<path
   d="m 597.20405,645.46361 c 6.47734,0.48765 6.47734,0.48765 9.57422,3.42968 2.55316,4.46804 2.74417,8.41344 2.8125,13.4375 0.029,0.69932 0.058,1.39864 0.0879,2.11914 0.0626,5.14508 -1.06457,7.96083 -4.40039,12.06836 -2.65864,2.10858 -3.98701,2.00024 -7.4375,1.9375 -4.4448,-1.16968 -5.80898,-2.2553 -8.5625,-5.9375 -0.73355,-3.51604 -0.69887,-6.91994 -0.625,-10.5 -0.0193,-0.93715 -0.0387,-1.87429 -0.0586,-2.83984 0.0337,-4.75645 0.10941,-6.94288 3.16016,-10.75391 0.83273,-0.62906 1.66547,-1.25812 2.52344,-1.90625 1,-1 1,-1 2.92578,-1.05468 z"
   fill="#eff0f1"
   id="path163" />
<path
   d="m 726.27827,662.5183 c 0.76141,7.61406 0.76141,7.61406 -1.04297,10.89843 -1.78057,2.14086 -3.45217,3.84914 -5.95703,5.10157 -1.64143,0.1464 -3.28982,0.22096 -4.9375,0.25 -0.87527,0.0258 -1.75055,0.0516 -2.65235,0.0781 -2.41015,-0.32813 -2.41015,-0.32813 -4.22656,-1.59376 -1.75667,-2.57413 -1.32878,-4.89992 -0.8125,-7.86719 0.62891,-1.86718 0.62891,-1.86718 2.69141,-3.74218 5.68185,-2.17603 10.79864,-3.43195 16.9375,-3.125 z"
   fill="#eceff1"
   id="path165" />
<path
   d="m 829.46577,663.4558 c 1.63002,0.0135 1.63002,0.0135 3.29297,0.0273 0.83144,0.0116 1.66289,0.0232 2.51953,0.0352 0.62718,7.99651 0.62718,7.99651 -1.875,12 -3.10089,2.91848 -4.89264,3.17652 -9.0625,3.25 -0.87527,0.0258 -1.75055,0.0516 -2.65235,0.0781 -2.41015,-0.32813 -2.41015,-0.32813 -4.19921,-1.62892 -2.04929,-2.87561 -1.62842,-5.29974 -1.21094,-8.69921 3.72508,-4.88114 7.32657,-5.12553 13.1875,-5.0625 z"
   fill="#eceff1"
   id="path167" />
<path
   d="m 221.27827,645.5183 c 4.02755,3.61446 4.06428,5.3857 5,11 -7.26,0 -14.52,0 -22,0 1,-7 1,-7 2.8125,-9.375 4.38896,-3.26038 9.02612,-3.16176 14.1875,-1.625 z"
   fill="#f0f1f1"
   id="path169"
   style="fill:none" />
</svg>
